<svg width="328" height="64" viewBox="0 0 328 64" fill="none" xmlns="http://www.w3.org/2000/svg">
<rect width="328" height="64" fill="#133348"/>
<g clip-path="url(#clip0_14043_63)">
<path d="M104.677 21.9029L98.6297 26.1432V18.2403L104.677 14L110.703 18.2255L110.704 30.3791L104.677 26.1432V21.9029Z" fill="white"/>
<path d="M93 22.1799L98.6297 26.1402V42.5342L104.677 38.3042V46.7597L98.6297 51L93 47.0219V22.1799Z" fill="white"/>
<path d="M104.677 38.3041L110.704 42.5312V34.6135L104.677 30.3702V38.3041Z" fill="white"/>
<path d="M131.052 23.4792H127.275V42.5341H140.082V39.3605H131.052V23.4792Z" fill="white"/>
<path d="M158.915 30.3717V42.5341H162.679V29.3212H170.214V26.1432H163.135C160.804 26.1432 158.913 28.0367 158.913 30.3717H158.915Z" fill="white"/>
<path d="M188.316 42.5623H192.079C192.079 42.5623 192.079 34.2964 192.079 29.3123L188.316 26.6736V42.5623Z" fill="white"/>
<path d="M197.244 26.1432H192.092V29.3108H195.883C197.531 29.3108 198.867 30.6487 198.867 32.2992V42.5623H202.652V31.5599C202.652 28.5686 200.231 26.1447 197.246 26.1447L197.244 26.1432Z" fill="white"/>
<path d="M233.993 30.0887C233.342 28.8604 232.386 27.8959 231.125 27.1951C229.882 26.4928 228.418 26.1432 226.729 26.1432C225.141 26.1432 223.718 26.4647 222.455 27.1077C221.214 27.7507 220.228 28.6856 219.495 29.9139C218.782 31.1214 218.427 32.5541 218.427 34.2105C218.427 35.8669 218.753 37.2404 219.404 38.5071C220.075 39.7739 221.032 40.7681 222.273 41.4881C223.535 42.1889 225.02 42.5401 226.729 42.5401C228.336 42.5401 229.761 42.2082 231.002 41.5459C232.264 40.8836 233.24 39.928 233.932 38.6805C234.645 37.4137 235 35.9232 235 34.2075C235 32.6682 234.664 31.2947 233.993 30.0857V30.0887ZM230.018 38.0982C229.219 39.0924 228.123 39.5887 226.727 39.5887C225.331 39.5887 224.295 39.1116 223.437 38.156C222.6 37.1811 222.182 35.8654 222.182 34.209C222.182 32.6696 222.59 31.4325 223.408 30.4961C224.245 29.5612 225.351 29.0931 226.727 29.0931C228.103 29.0931 229.2 29.5612 230.018 30.4961C230.835 31.431 231.244 32.6696 231.244 34.209C231.244 35.7484 230.835 37.0833 230.018 38.0967V38.0982Z" fill="white"/>
<path d="M183.089 27.1921C181.904 26.4899 180.506 26.1402 178.894 26.1402C177.379 26.1402 176.021 26.4617 174.817 27.1047C173.632 27.7477 172.692 28.6826 171.992 29.9109C171.312 31.1184 170.973 32.5511 170.973 34.2075C170.973 35.8639 171.283 37.2374 171.905 38.5042C172.545 39.7709 173.458 40.7651 174.643 41.4851C175.847 42.1859 177.264 42.5371 178.895 42.5371C180.429 42.5371 181.788 42.2052 182.973 41.5429C184.177 40.8806 185.109 39.925 185.769 38.6775C185.843 38.5382 185.912 38.396 185.979 38.2523H181.899C181.151 39.1368 180.152 39.5842 178.895 39.5842C177.638 39.5842 176.574 39.1072 175.756 38.1515C175.109 37.3618 174.728 36.3455 174.606 35.1083H184.844V35.1054H186.75C186.773 34.812 186.788 34.5142 186.788 34.206C186.788 32.6666 186.467 31.2932 185.827 30.0842C185.205 28.856 184.293 27.8914 183.089 27.1907V27.1921ZM175.725 30.4946C176.524 29.5597 177.58 29.0915 178.892 29.0915C180.204 29.0915 181.252 29.5597 182.033 30.4946C182.497 31.0517 182.821 31.7199 183.009 32.4918H174.749C174.937 31.7199 175.259 31.0517 175.725 30.4946Z" fill="white"/>
<path d="M153.533 27.1951C152.292 26.4928 150.828 26.1432 149.139 26.1432C147.552 26.1432 146.129 26.4647 144.867 27.1077C144.37 27.3655 143.916 27.6707 143.502 28.0219L146.339 30.0131C147.098 29.4042 148.029 29.0945 149.137 29.0945C150.514 29.0945 151.609 29.5627 152.427 30.4976C153.244 31.4325 153.653 32.6711 153.653 34.2105C153.653 35.7499 153.244 37.0848 152.427 38.0982C151.63 39.0924 150.534 39.5887 149.137 39.5887C147.741 39.5887 146.707 39.1116 145.849 38.156C145.012 37.1811 144.593 35.8654 144.593 34.209C144.593 33.8134 144.621 33.4386 144.675 33.083L141.459 30.8176C141.046 31.8192 140.839 32.9482 140.839 34.209C140.839 35.8077 141.165 37.2389 141.815 38.5057C142.487 39.7724 143.443 40.7666 144.684 41.4866C145.945 42.1874 147.429 42.5386 149.139 42.5386C150.747 42.5386 152.17 42.2067 153.412 41.5444C154.674 40.8821 155.65 39.9265 156.341 38.679C157.054 37.4122 157.409 35.9218 157.409 34.2061C157.409 32.6667 157.073 31.2932 156.402 30.0842C155.751 28.856 154.795 27.8915 153.533 27.1907V27.1951Z" fill="white"/>
<path d="M204.114 29.3212H213.176L204.119 39.4391V42.5341H217.667V39.3591H208.671L217.667 29.3716V26.1432H204.114V29.3212Z" fill="white"/>
</g>
<defs>
<clipPath id="clip0_14043_63">
<rect width="142" height="37" fill="white" transform="translate(93 14)"/>
</clipPath>
</defs>
</svg>
