<svg width="96" height="96" viewBox="0 0 96 96" fill="none" xmlns="http://www.w3.org/2000/svg">
<g clip-path="url(#clip0_5306_8486)">
<path d="M47.5716 93.4277C72.8979 93.4277 93.4288 73.2805 93.4288 48.4277C93.4288 23.5749 72.8979 3.42773 47.5716 3.42773C22.2453 3.42773 1.71436 23.5749 1.71436 48.4277C1.71436 73.2805 22.2453 93.4277 47.5716 93.4277Z" fill="#E5A935"/>
<path d="M46.7038 0H44.1118V2.52384H46.7038V0Z" fill="#4C1E0E"/>
<path d="M60.9791 0H35.0303V2.52384H60.9791V0Z" fill="#4C1E0E"/>
<path d="M51.8874 0H49.2954V2.52384H51.8874V0Z" fill="#4C1E0E"/>
<path d="M33.7243 2.52344H31.1323V5.04727H33.7243V2.52344Z" fill="#4C1E0E"/>
<path d="M36.3274 2.52344H33.7354V5.04727H36.3274V2.52344Z" fill="#4C1E0E"/>
<path d="M38.9176 2.52344H36.3257V5.04727H38.9176V2.52344Z" fill="#4C1E0E"/>
<path d="M41.5105 2.52344H38.9185V5.04727H41.5105V2.52344Z" fill="#CEC215"/>
<path d="M44.1032 2.52344H41.5112V5.04727H44.1032V2.52344Z" fill="#FEF019"/>
<path d="M46.7038 2.52344H44.1118V5.04727H46.7038V2.52344Z" fill="#FEF019"/>
<path d="M49.2966 2.52344H46.7046V5.04727H49.2966V2.52344Z" fill="#FEF019"/>
<path d="M51.8874 2.52344H49.2954V5.04727H51.8874V2.52344Z" fill="#FEF019"/>
<path d="M54.4896 2.52344H51.8979V5.04727H54.4896V2.52344Z" fill="#FEF019"/>
<path d="M57.0808 2.52344H54.4888V5.04727H57.0808V2.52344Z" fill="#FEF019"/>
<path d="M59.6735 2.52344H57.0815V5.04727H59.6735V2.52344Z" fill="#4C1E0E"/>
<path d="M62.2663 2.52344H59.6743V5.04727H62.2663V2.52344Z" fill="#4C1E0E"/>
<path d="M64.8664 2.52344H62.2744V5.04727H64.8664V2.52344Z" fill="#4C1E0E"/>
<path d="M28.5412 5.05664H25.9492V7.58047H28.5412V5.05664Z" fill="#4C1E0E"/>
<path d="M31.1315 5.05664H28.5396V7.58047H31.1315V5.05664Z" fill="#4C1E0E"/>
<path d="M33.7243 5.05664H31.1323V7.58047H33.7243V5.05664Z" fill="#FEF019"/>
<path d="M36.3274 5.05664H33.7354V7.58047H36.3274V5.05664Z" fill="#FEF019"/>
<path d="M38.9176 5.05664H36.3257V7.58047H38.9176V5.05664Z" fill="#FEF019"/>
<path d="M41.5105 5.05664H38.9185V7.58047H41.5105V5.05664Z" fill="#FEE81B"/>
<path d="M44.1032 5.05664H41.5112V7.58047H44.1032V5.05664Z" fill="#FEE81B"/>
<path d="M46.7038 5.05664H44.1118V7.58047H46.7038V5.05664Z" fill="#FEE81B"/>
<path d="M49.2966 5.05664H46.7046V7.58047H49.2966V5.05664Z" fill="#FEE81B"/>
<path d="M51.8874 5.05664H49.2954V7.58047H51.8874V5.05664Z" fill="#FEE81B"/>
<path d="M54.4896 5.05664H51.8979V7.58047H54.4896V5.05664Z" fill="#FEE81B"/>
<path d="M57.0808 5.05664H54.4888V7.58047H57.0808V5.05664Z" fill="#FEE81B"/>
<path d="M59.6735 5.05664H57.0815V7.58047H59.6735V5.05664Z" fill="#FEF019"/>
<path d="M62.2663 5.05664H59.6743V7.58047H62.2663V5.05664Z" fill="#FEF019"/>
<path d="M64.8664 5.05664H62.2744V7.58047H64.8664V5.05664Z" fill="#FEF019"/>
<path d="M67.4597 5.05664H64.8677V7.58047H67.4597V5.05664Z" fill="#4C1E0E"/>
<path d="M70.05 5.05664H67.458V7.58047H70.05V5.05664Z" fill="#4C1E0E"/>
<path d="M23.3479 7.58203H20.7559V10.1059H23.3479V7.58203Z" fill="#4C1E0E"/>
<path d="M25.9382 7.58203H23.3462V10.1059H25.9382V7.58203Z" fill="#4C1E0E"/>
<path d="M28.5412 7.58203H25.9492V10.1059H28.5412V7.58203Z" fill="#FEF019"/>
<path d="M31.1315 7.58203H28.5396V10.1059H31.1315V7.58203Z" fill="#FEF019"/>
<path d="M33.7243 7.58203H31.1323V10.1059H33.7243V7.58203Z" fill="#FEE81B"/>
<path d="M36.3274 7.58203H33.7354V10.1059H36.3274V7.58203Z" fill="#FEE81B"/>
<path d="M38.9176 7.58203H36.3257V10.1059H38.9176V7.58203Z" fill="#FEE81B"/>
<path d="M41.5105 7.58203H38.9185V10.1059H41.5105V7.58203Z" fill="#FEE81B"/>
<path d="M44.1032 7.58203H41.5112V10.1059H44.1032V7.58203Z" fill="#FEE81B"/>
<path d="M46.7038 7.58203H44.1118V10.1059H46.7038V7.58203Z" fill="#FEE81B"/>
<path d="M49.2966 7.58203H46.7046V10.1059H49.2966V7.58203Z" fill="#FEE81B"/>
<path d="M51.8874 7.58203H49.2954V10.1059H51.8874V7.58203Z" fill="#FEE81B"/>
<path d="M54.4896 7.58203H51.8979V10.1059H54.4896V7.58203Z" fill="#FEE81B"/>
<path d="M57.0808 7.58203H54.4888V10.1059H57.0808V7.58203Z" fill="#FEE81B"/>
<path d="M59.6735 7.58203H57.0815V10.1059H59.6735V7.58203Z" fill="#FEE81B"/>
<path d="M62.2663 7.58203H59.6743V10.1059H62.2663V7.58203Z" fill="#FEE81B"/>
<path d="M64.8664 7.58203H62.2744V10.1059H64.8664V7.58203Z" fill="#FEE81B"/>
<path d="M67.4597 7.58203H64.8677V10.1059H67.4597V7.58203Z" fill="#FEF019"/>
<path d="M70.05 7.58203H67.458V10.1059H70.05V7.58203Z" fill="#FEF019"/>
<path d="M72.6433 7.58203H70.0513V10.1059H72.6433V7.58203Z" fill="#4C1E0E"/>
<path d="M75.2458 7.58203H72.6538V10.1059H75.2458V7.58203Z" fill="#4C1E0E"/>
<path d="M20.755 10.1055H18.1631V12.6293H20.755V10.1055Z" fill="#4C1E0E"/>
<path d="M23.3479 10.1055H20.7559V12.6293H23.3479V10.1055Z" fill="#FEF019"/>
<path d="M25.9382 10.1055H23.3462V12.6293H25.9382V10.1055Z" fill="#FEF019"/>
<path d="M28.5412 10.1055H25.9492V12.6293H28.5412V10.1055Z" fill="#FEE81B"/>
<path d="M31.1315 10.1055H28.5396V12.6293H31.1315V10.1055Z" fill="#FEE81B"/>
<path d="M33.7243 10.1055H31.1323V12.6293H33.7243V10.1055Z" fill="#FEE81B"/>
<path d="M36.3274 10.1055H33.7354V12.6293H36.3274V10.1055Z" fill="#FEE81B"/>
<path d="M38.9176 10.1055H36.3257V12.6293H38.9176V10.1055Z" fill="#FEE81B"/>
<path d="M41.5105 10.1055H38.9185V12.6293H41.5105V10.1055Z" fill="#FEE81B"/>
<path d="M44.1032 10.1055H41.5112V12.6293H44.1032V10.1055Z" fill="#C45B28"/>
<path d="M46.7038 10.1055H44.1118V12.6293H46.7038V10.1055Z" fill="#C45B28"/>
<path d="M49.2966 10.1055H46.7046V12.6293H49.2966V10.1055Z" fill="#C45B28"/>
<path d="M51.8874 10.1055H49.2954V12.6293H51.8874V10.1055Z" fill="#C45B28"/>
<path d="M54.4896 10.1055H51.8979V12.6293H54.4896V10.1055Z" fill="#C45B28"/>
<path d="M57.0808 10.1055H54.4888V12.6293H57.0808V10.1055Z" fill="#FEE81B"/>
<path d="M59.6735 10.1055H57.0815V12.6293H59.6735V10.1055Z" fill="#FEE81B"/>
<path d="M62.2663 10.1055H59.6743V12.6293H62.2663V10.1055Z" fill="#FEE81B"/>
<path d="M64.8664 10.1055H62.2744V12.6293H64.8664V10.1055Z" fill="#FEE81B"/>
<path d="M67.4597 10.1055H64.8677V12.6293H67.4597V10.1055Z" fill="#FEE81B"/>
<path d="M70.05 10.1055H67.458V12.6293H70.05V10.1055Z" fill="#FEE81B"/>
<path d="M72.6433 10.1055H70.0513V12.6293H72.6433V10.1055Z" fill="#FEF019"/>
<path d="M75.2458 10.1055H72.6538V12.6293H75.2458V10.1055Z" fill="#FEF019"/>
<path d="M77.8361 10.1055H75.2441V12.6293H77.8361V10.1055Z" fill="#4C1E0E"/>
<path d="M18.1642 12.6289H15.5723V15.1528H18.1642V12.6289Z" fill="#4C1E0E"/>
<path d="M20.755 12.6289H18.1631V15.1528H20.755V12.6289Z" fill="#FEF019"/>
<path d="M23.3479 12.6289H20.7559V15.1528H23.3479V12.6289Z" fill="#FEE81B"/>
<path d="M25.9382 12.6289H23.3462V15.1528H25.9382V12.6289Z" fill="#FEE81B"/>
<path d="M28.5412 12.6289H25.9492V15.1528H28.5412V12.6289Z" fill="#FEE81B"/>
<path d="M31.1315 12.6289H28.5396V15.1528H31.1315V12.6289Z" fill="#FEE81B"/>
<path d="M33.7243 12.6289H31.1323V15.1528H33.7243V12.6289Z" fill="#FEE81B"/>
<path d="M36.3274 12.6289H33.7354V15.1528H36.3274V12.6289Z" fill="#C45B28"/>
<path d="M38.9176 12.6289H36.3257V15.1528H38.9176V12.6289Z" fill="#C45B28"/>
<path d="M41.5105 12.6289H38.9185V15.1528H41.5105V12.6289Z" fill="#C45B28"/>
<path d="M44.1032 12.6289H41.5112V15.1528H44.1032V12.6289Z" fill="#C45B28"/>
<path d="M46.7038 12.6289H44.1118V15.1528H46.7038V12.6289Z" fill="#C45B28"/>
<path d="M49.2966 12.6289H46.7046V15.1528H49.2966V12.6289Z" fill="#C45B28"/>
<path d="M51.8874 12.6289H49.2954V15.1528H51.8874V12.6289Z" fill="#C45B28"/>
<path d="M54.4896 12.6289H51.8979V15.1528H54.4896V12.6289Z" fill="#C45B28"/>
<path d="M57.0808 12.6289H54.4888V15.1528H57.0808V12.6289Z" fill="#C45B28"/>
<path d="M59.6735 12.6289H57.0815V15.1528H59.6735V12.6289Z" fill="#C45B28"/>
<path d="M62.2663 12.6289H59.6743V15.1528H62.2663V12.6289Z" fill="#C45B28"/>
<path d="M64.8664 12.6289H62.2744V15.1528H64.8664V12.6289Z" fill="#FEE81B"/>
<path d="M67.4597 12.6289H64.8677V15.1528H67.4597V12.6289Z" fill="#FEE81B"/>
<path d="M70.05 12.6289H67.458V15.1528H70.05V12.6289Z" fill="#FEE81B"/>
<path d="M72.6433 12.6289H70.0513V15.1528H72.6433V12.6289Z" fill="#FEE81B"/>
<path d="M75.2458 12.6289H72.6538V15.1528H75.2458V12.6289Z" fill="#FEE81B"/>
<path d="M77.8361 12.6289H75.2441V15.1528H77.8361V12.6289Z" fill="#FEF019"/>
<path d="M80.4289 12.6289H77.8369V15.1528H80.4289V12.6289Z" fill="#4C1E0E"/>
<path d="M15.5617 15.1621H12.9697V17.6859H15.5617V15.1621Z" fill="#4C1E0E"/>
<path d="M18.1642 15.1621H15.5723V17.6859H18.1642V15.1621Z" fill="#FEF019"/>
<path d="M20.755 15.1621H18.1631V17.6859H20.755V15.1621Z" fill="#FEE81B"/>
<path d="M23.3479 15.1621H20.7559V17.6859H23.3479V15.1621Z" fill="#FEE81B"/>
<path d="M25.9382 15.1621H23.3462V17.6859H25.9382V15.1621Z" fill="#FEE81B"/>
<path d="M28.5412 15.1621H25.9492V17.6859H28.5412V15.1621Z" fill="#FEE81B"/>
<path d="M31.1315 15.1621H28.5396V17.6859H31.1315V15.1621Z" fill="#C45B28"/>
<path d="M33.7243 15.1621H31.1323V17.6859H33.7243V15.1621Z" fill="#C45B28"/>
<path d="M36.3274 15.1621H33.7354V17.6859H36.3274V15.1621Z" fill="#C45B28"/>
<path d="M38.9176 15.1621H36.3257V17.6859H38.9176V15.1621Z" fill="#C45B28"/>
<path d="M41.5105 15.1621H38.9185V17.6859H41.5105V15.1621Z" fill="#EBB43A"/>
<path d="M44.1032 15.1621H41.5112V17.6859H44.1032V15.1621Z" fill="#EBB43A"/>
<path d="M46.7038 15.1621H44.1118V17.6859H46.7038V15.1621Z" fill="#EBB43A"/>
<path d="M49.2966 15.1621H46.7046V17.6859H49.2966V15.1621Z" fill="#EBB43A"/>
<path d="M51.8874 15.1621H49.2954V17.6859H51.8874V15.1621Z" fill="#EBB439"/>
<path d="M54.4896 15.1621H51.8979V17.6859H54.4896V15.1621Z" fill="#EBB43A"/>
<path d="M57.0808 15.1621H54.4888V17.6859H57.0808V15.1621Z" fill="#EBB43A"/>
<path d="M59.6735 15.1621H57.0815V17.6859H59.6735V15.1621Z" fill="#C45B28"/>
<path d="M62.2663 15.1621H59.6743V17.6859H62.2663V15.1621Z" fill="#C45B28"/>
<path d="M64.8664 15.1621H62.2744V17.6859H64.8664V15.1621Z" fill="#C45B28"/>
<path d="M67.4597 15.1621H64.8677V17.6859H67.4597V15.1621Z" fill="#C45B28"/>
<path d="M70.05 15.1621H67.458V17.6859H70.05V15.1621Z" fill="#FEE81B"/>
<path d="M72.6433 15.1621H70.0513V17.6859H72.6433V15.1621Z" fill="#FEE81B"/>
<path d="M75.2458 15.1621H72.6538V17.6859H75.2458V15.1621Z" fill="#FEE81B"/>
<path d="M77.8361 15.1621H75.2441V17.6859H77.8361V15.1621Z" fill="#FEE81B"/>
<path d="M80.4289 15.1621H77.8369V17.6859H80.4289V15.1621Z" fill="#FEF019"/>
<path d="M83.0295 15.1621H80.4375V17.6859H83.0295V15.1621Z" fill="#4C1E0E"/>
<path d="M12.9684 17.6855H10.3765V20.2094H12.9684V17.6855Z" fill="#4C1E0E"/>
<path d="M15.5617 17.6855H12.9697V20.2094H15.5617V17.6855Z" fill="#FEF019"/>
<path d="M18.1642 17.6855H15.5723V20.2094H18.1642V17.6855Z" fill="#FEE81B"/>
<path d="M20.755 17.6855H18.1631V20.2094H20.755V17.6855Z" fill="#FEE81B"/>
<path d="M23.3479 17.6855H20.7559V20.2094H23.3479V17.6855Z" fill="#FEE81B"/>
<path d="M25.9382 17.6855H23.3462V20.2094H25.9382V17.6855Z" fill="#F7D71D"/>
<path d="M28.5412 17.6855H25.9492V20.2094H28.5412V17.6855Z" fill="#C45B28"/>
<path d="M31.1315 17.6855H28.5396V20.2094H31.1315V17.6855Z" fill="#C45B28"/>
<path d="M33.7243 17.6855H31.1323V20.2094H33.7243V17.6855Z" fill="#EBB43A"/>
<path d="M36.3274 17.6855H33.7354V20.2094H36.3274V17.6855Z" fill="#EBB439"/>
<path d="M38.9176 17.6855H36.3257V20.2094H38.9176V17.6855Z" fill="#EBB43A"/>
<path d="M41.5105 17.6855H38.9185V20.2094H41.5105V17.6855Z" fill="#EBB43A"/>
<path d="M44.1032 17.6855H41.5112V20.2094H44.1032V17.6855Z" fill="#EBB43A"/>
<path d="M46.7038 17.6855H44.1118V20.2094H46.7038V17.6855Z" fill="#EBB43B"/>
<path d="M49.2966 17.6855H46.7046V20.2094H49.2966V17.6855Z" fill="#EBB43B"/>
<path d="M51.8874 17.6855H49.2954V20.2094H51.8874V17.6855Z" fill="#EBB43B"/>
<path d="M54.4896 17.6855H51.8979V20.2094H54.4896V17.6855Z" fill="#EBB43A"/>
<path d="M57.0808 17.6855H54.4888V20.2094H57.0808V17.6855Z" fill="#EBB43A"/>
<path d="M59.6735 17.6855H57.0815V20.2094H59.6735V17.6855Z" fill="#ECB53B"/>
<path d="M62.2663 17.6855H59.6743V20.2094H62.2663V17.6855Z" fill="#EBB43A"/>
<path d="M64.8664 17.6855H62.2744V20.2094H64.8664V17.6855Z" fill="#EBB439"/>
<path d="M67.4597 17.6855H64.8677V20.2094H67.4597V17.6855Z" fill="#C45B28"/>
<path d="M70.05 17.6855H67.458V20.2094H70.05V17.6855Z" fill="#C45B28"/>
<path d="M72.6433 17.6855H70.0513V20.2094H72.6433V17.6855Z" fill="#C45B28"/>
<path d="M75.2458 17.6855H72.6538V20.2094H75.2458V17.6855Z" fill="#FEE81B"/>
<path d="M77.8361 17.6855H75.2441V20.2094H77.8361V17.6855Z" fill="#FEE81B"/>
<path d="M80.4289 17.6855H77.8369V20.2094H80.4289V17.6855Z" fill="#FEE81B"/>
<path d="M83.0295 17.6855H80.4375V20.2094H83.0295V17.6855Z" fill="#FEF019"/>
<path d="M85.6223 17.6855H83.0303V20.2094H85.6223V17.6855Z" fill="#4C1E0E"/>
<path d="M10.3781 20.209H7.78613V22.7328H10.3781V20.209Z" fill="#4C1E0E"/>
<path d="M12.9684 20.209H10.3765V22.7328H12.9684V20.209Z" fill="#FEE81B"/>
<path d="M15.5617 20.209H12.9697V22.7328H15.5617V20.209Z" fill="#FEDE1E"/>
<path d="M18.1642 20.209H15.5723V22.7328H18.1642V20.209Z" fill="#FEE81B"/>
<path d="M20.755 20.209H18.1631V22.7328H20.755V20.209Z" fill="#FEE81B"/>
<path d="M23.3479 20.209H20.7559V22.7328H23.3479V20.209Z" fill="#C45B28"/>
<path d="M25.9382 20.209H23.3462V22.7328H25.9382V20.209Z" fill="#C45B28"/>
<path d="M28.5412 20.209H25.9492V22.7328H28.5412V20.209Z" fill="#C45B28"/>
<path d="M31.1315 20.209H28.5396V22.7328H31.1315V20.209Z" fill="#EBB43A"/>
<path d="M33.7243 20.209H31.1323V22.7328H33.7243V20.209Z" fill="#EBB43A"/>
<path d="M36.3274 20.209H33.7354V22.7328H36.3274V20.209Z" fill="#EBB43A"/>
<path d="M38.9176 20.209H36.3257V22.7328H38.9176V20.209Z" fill="#EBB43A"/>
<path d="M41.5105 20.209H38.9185V22.7328H41.5105V20.209Z" fill="#EBB43B"/>
<path d="M44.1032 20.209H41.5112V22.7328H44.1032V20.209Z" fill="#EBB43A"/>
<path d="M46.7038 20.209H44.1118V22.7328H46.7038V20.209Z" fill="#EBB43A"/>
<path d="M49.2966 20.209H46.7046V22.7328H49.2966V20.209Z" fill="#EBB439"/>
<path d="M51.8874 20.209H49.2954V22.7328H51.8874V20.209Z" fill="#EBB43A"/>
<path d="M54.4896 20.209H51.8979V22.7328H54.4896V20.209Z" fill="#EBB43A"/>
<path d="M57.0808 20.209H54.4888V22.7328H57.0808V20.209Z" fill="#EBB43B"/>
<path d="M59.6735 20.209H57.0815V22.7328H59.6735V20.209Z" fill="#EBB43A"/>
<path d="M62.2663 20.209H59.6743V22.7328H62.2663V20.209Z" fill="#EBB43A"/>
<path d="M64.8664 20.209H62.2744V22.7328H64.8664V20.209Z" fill="#EBB43A"/>
<path d="M67.4597 20.209H64.8677V22.7328H67.4597V20.209Z" fill="#EBB43A"/>
<path d="M70.05 20.209H67.458V22.7328H70.05V20.209Z" fill="#DC9334"/>
<path d="M72.6433 20.209H70.0513V22.7328H72.6433V20.209Z" fill="#C45B28"/>
<path d="M75.2458 20.209H72.6538V22.7328H75.2458V20.209Z" fill="#C45B28"/>
<path d="M77.8361 20.209H75.2441V22.7328H77.8361V20.209Z" fill="#FEE81B"/>
<path d="M80.4289 20.209H77.8369V22.7328H80.4289V20.209Z" fill="#FEE81B"/>
<path d="M83.0295 20.209H80.4375V22.7328H83.0295V20.209Z" fill="#FED91F"/>
<path d="M85.6223 20.209H83.0303V22.7328H85.6223V20.209Z" fill="#FEE81B"/>
<path d="M88.2155 20.209H85.6235V22.7328H88.2155V20.209Z" fill="#4C1E0E"/>
<path d="M10.3781 22.7324H7.78613V25.2562H10.3781V22.7324Z" fill="#4C1E0E"/>
<path d="M12.9684 22.7324H10.3765V25.2562H12.9684V22.7324Z" fill="#FED81F"/>
<path d="M15.5617 22.7324H12.9697V25.2562H15.5617V22.7324Z" fill="#FED81F"/>
<path d="M18.1642 22.7324H15.5723V25.2562H18.1642V22.7324Z" fill="#FED81F"/>
<path d="M20.755 22.7324H18.1631V25.2562H20.755V22.7324Z" fill="#F7D01E"/>
<path d="M23.3479 22.7324H20.7559V25.2562H23.3479V22.7324Z" fill="#C45B28"/>
<path d="M25.9382 22.7324H23.3462V25.2562H25.9382V22.7324Z" fill="#EAB239"/>
<path d="M28.5412 22.7324H25.9492V25.2562H28.5412V22.7324Z" fill="#EAB139"/>
<path d="M31.1315 22.7324H28.5396V25.2562H31.1315V22.7324Z" fill="#EAB239"/>
<path d="M33.7243 22.7324H31.1323V25.2562H33.7243V22.7324Z" fill="#EAB239"/>
<path d="M36.3274 22.7324H33.7354V25.2562H36.3274V22.7324Z" fill="#EAB139"/>
<path d="M38.9176 22.7324H36.3257V25.2562H38.9176V22.7324Z" fill="#EAB139"/>
<path d="M41.5105 22.7324H38.9185V25.2562H41.5105V22.7324Z" fill="#EAB23A"/>
<path d="M44.1032 22.7324H41.5112V25.2562H44.1032V22.7324Z" fill="#EAB239"/>
<path d="M46.7038 22.7324H44.1118V25.2562H46.7038V22.7324Z" fill="#EAB138"/>
<path d="M49.2966 22.7324H46.7046V25.2562H49.2966V22.7324Z" fill="#EAB139"/>
<path d="M51.8874 22.7324H49.2954V25.2562H51.8874V22.7324Z" fill="#EAB239"/>
<path d="M54.4896 22.7324H51.8979V25.2562H54.4896V22.7324Z" fill="#EAB239"/>
<path d="M57.0808 22.7324H54.4888V25.2562H57.0808V22.7324Z" fill="#EAB239"/>
<path d="M59.6735 22.7324H57.0815V25.2562H59.6735V22.7324Z" fill="#EAB239"/>
<path d="M62.2663 22.7324H59.6743V25.2562H62.2663V22.7324Z" fill="#EAB239"/>
<path d="M64.8664 22.7324H62.2744V25.2562H64.8664V22.7324Z" fill="#EAB239"/>
<path d="M67.4597 22.7324H64.8677V25.2562H67.4597V22.7324Z" fill="#EAB239"/>
<path d="M70.05 22.7324H67.458V25.2562H70.05V22.7324Z" fill="#EAB139"/>
<path d="M72.6433 22.7324H70.0513V25.2562H72.6433V22.7324Z" fill="#EAB239"/>
<path d="M75.2458 22.7324H72.6538V25.2562H75.2458V22.7324Z" fill="#C45B28"/>
<path d="M77.8361 22.7324H75.2441V25.2562H77.8361V22.7324Z" fill="#C45B28"/>
<path d="M80.4289 22.7324H77.8369V25.2562H80.4289V22.7324Z" fill="#FED81F"/>
<path d="M83.0295 22.7324H80.4375V25.2562H83.0295V22.7324Z" fill="#FED81F"/>
<path d="M85.6223 22.7324H83.0303V25.2562H85.6223V22.7324Z" fill="#FED81F"/>
<path d="M88.2155 22.7324H85.6235V25.2562H88.2155V22.7324Z" fill="#4C1E0E"/>
<path d="M7.78536 25.2676H5.19336V27.7914H7.78536V25.2676Z" fill="#4C1E0E"/>
<path d="M10.3781 25.2676H7.78613V27.7914H10.3781V25.2676Z" fill="#FEE81B"/>
<path d="M12.9684 25.2676H10.3765V27.7914H12.9684V25.2676Z" fill="#FED81F"/>
<path d="M15.5617 25.2676H12.9697V27.7914H15.5617V25.2676Z" fill="#FED81F"/>
<path d="M18.1642 25.2676H15.5723V27.7914H18.1642V25.2676Z" fill="#FED81F"/>
<path d="M20.755 25.2676H18.1631V27.7914H20.755V25.2676Z" fill="#C45B28"/>
<path d="M23.3479 25.2676H20.7559V27.7914H23.3479V25.2676Z" fill="#E8AF38"/>
<path d="M25.9382 25.2676H23.3462V27.7914H25.9382V25.2676Z" fill="#E8AF38"/>
<path d="M28.5412 25.2676H25.9492V27.7914H28.5412V25.2676Z" fill="#E8AF38"/>
<path d="M31.1315 25.2676H28.5396V27.7914H31.1315V25.2676Z" fill="#E8AF37"/>
<path d="M33.7243 25.2676H31.1323V27.7914H33.7243V25.2676Z" fill="#E8AF38"/>
<path d="M36.3274 25.2676H33.7354V27.7914H36.3274V25.2676Z" fill="#E8AF37"/>
<path d="M38.9176 25.2676H36.3257V27.7914H38.9176V25.2676Z" fill="#E8AF38"/>
<path d="M41.5105 25.2676H38.9185V27.7914H41.5105V25.2676Z" fill="#E8AF37"/>
<path d="M44.1032 25.2676H41.5112V27.7914H44.1032V25.2676Z" fill="#E8AF38"/>
<path d="M46.7038 25.2676H44.1118V27.7914H46.7038V25.2676Z" fill="#E8AF38"/>
<path d="M49.2966 25.2676H46.7046V27.7914H49.2966V25.2676Z" fill="#E8AF37"/>
<path d="M51.8874 25.2676H49.2954V27.7914H51.8874V25.2676Z" fill="#E8AF38"/>
<path d="M54.4896 25.2676H51.8979V27.7914H54.4896V25.2676Z" fill="#E8AF38"/>
<path d="M57.0808 25.2676H54.4888V27.7914H57.0808V25.2676Z" fill="#E9AF38"/>
<path d="M59.6735 25.2676H57.0815V27.7914H59.6735V25.2676Z" fill="#E8AF37"/>
<path d="M62.2663 25.2676H59.6743V27.7914H62.2663V25.2676Z" fill="#E8AF37"/>
<path d="M64.8664 25.2676H62.2744V27.7914H64.8664V25.2676Z" fill="#E8AF38"/>
<path d="M67.4597 25.2676H64.8677V27.7914H67.4597V25.2676Z" fill="#E8AF38"/>
<path d="M70.05 25.2676H67.458V27.7914H70.05V25.2676Z" fill="#E8AF38"/>
<path d="M72.6433 25.2676H70.0513V27.7914H72.6433V25.2676Z" fill="#E8AF37"/>
<path d="M75.2458 25.2676H72.6538V27.7914H75.2458V25.2676Z" fill="#E8AF38"/>
<path d="M77.8361 25.2676H75.2441V27.7914H77.8361V25.2676Z" fill="#C45B28"/>
<path d="M80.4289 25.2676H77.8369V27.7914H80.4289V25.2676Z" fill="#FED81F"/>
<path d="M83.0295 25.2676H80.4375V27.7914H83.0295V25.2676Z" fill="#FED81F"/>
<path d="M85.6223 25.2676H83.0303V27.7914H85.6223V25.2676Z" fill="#FED81F"/>
<path d="M88.2155 25.2676H85.6235V27.7914H88.2155V25.2676Z" fill="#FEE81B"/>
<path d="M90.8059 25.2676H88.2139V27.7914H90.8059V25.2676Z" fill="#4C1E0E"/>
<path d="M7.78536 27.791H5.19336V30.3148H7.78536V27.791Z" fill="#4C1E0E"/>
<path d="M10.3781 27.791H7.78613V30.3148H10.3781V27.791Z" fill="#FED81F"/>
<path d="M12.9684 27.791H10.3765V30.3148H12.9684V27.791Z" fill="#FED81F"/>
<path d="M15.5617 27.791H12.9697V30.3148H15.5617V27.791Z" fill="#FED81F"/>
<path d="M18.1642 27.791H15.5723V30.3148H18.1642V27.791Z" fill="#C45B28"/>
<path d="M20.755 27.791H18.1631V30.3148H20.755V27.791Z" fill="#E6AC37"/>
<path d="M23.3479 27.791H20.7559V30.3148H23.3479V27.791Z" fill="#E6AC36"/>
<path d="M25.9382 27.791H23.3462V30.3148H25.9382V27.791Z" fill="#E7AC37"/>
<path d="M28.5412 27.791H25.9492V30.3148H28.5412V27.791Z" fill="#E6AC37"/>
<path d="M31.1315 27.791H28.5396V30.3148H31.1315V27.791Z" fill="#E7AD37"/>
<path d="M33.7243 27.791H31.1323V30.3148H33.7243V27.791Z" fill="#E7AC37"/>
<path d="M36.3274 27.791H33.7354V30.3148H36.3274V27.791Z" fill="#E6AC36"/>
<path d="M38.9176 27.791H36.3257V30.3148H38.9176V27.791Z" fill="#E6AC36"/>
<path d="M41.5105 27.791H38.9185V30.3148H41.5105V27.791Z" fill="#E6AC36"/>
<path d="M44.1032 27.791H41.5112V30.3148H44.1032V27.791Z" fill="#E7AC36"/>
<path d="M46.7038 27.791H44.1118V30.3148H46.7038V27.791Z" fill="#E6AC36"/>
<path d="M49.2966 27.791H46.7046V30.3148H49.2966V27.791Z" fill="#E7AD37"/>
<path d="M51.8874 27.791H49.2954V30.3148H51.8874V27.791Z" fill="#E6AC36"/>
<path d="M54.4896 27.791H51.8979V30.3148H54.4896V27.791Z" fill="#E6AC37"/>
<path d="M57.0808 27.791H54.4888V30.3148H57.0808V27.791Z" fill="#E7AC36"/>
<path d="M59.6735 27.791H57.0815V30.3148H59.6735V27.791Z" fill="#E6AC36"/>
<path d="M62.2663 27.791H59.6743V30.3148H62.2663V27.791Z" fill="#E6AC37"/>
<path d="M64.8664 27.791H62.2744V30.3148H64.8664V27.791Z" fill="#E6AC36"/>
<path d="M67.4597 27.791H64.8677V30.3148H67.4597V27.791Z" fill="#E7AC37"/>
<path d="M70.05 27.791H67.458V30.3148H70.05V27.791Z" fill="#E6AC37"/>
<path d="M72.6433 27.791H70.0513V30.3148H72.6433V27.791Z" fill="#E7AD37"/>
<path d="M75.2458 27.791H72.6538V30.3148H75.2458V27.791Z" fill="#E7AC37"/>
<path d="M77.8361 27.791H75.2441V30.3148H77.8361V27.791Z" fill="#E6AC36"/>
<path d="M80.4289 27.791H77.8369V30.3148H80.4289V27.791Z" fill="#C45B28"/>
<path d="M83.0295 27.791H80.4375V30.3148H83.0295V27.791Z" fill="#FED81F"/>
<path d="M85.6223 27.791H83.0303V30.3148H85.6223V27.791Z" fill="#FED81F"/>
<path d="M88.2155 27.791H85.6235V30.3148H88.2155V27.791Z" fill="#FED81F"/>
<path d="M90.8059 27.791H88.2139V30.3148H90.8059V27.791Z" fill="#4C1E0E"/>
<path d="M5.18475 30.3145H2.59277V32.8383H5.18475V30.3145Z" fill="#4C1E0E"/>
<path d="M7.78536 30.3145H5.19336V32.8383H7.78536V30.3145Z" fill="#FEE81B"/>
<path d="M10.3781 30.3145H7.78613V32.8383H10.3781V30.3145Z" fill="#FED81F"/>
<path d="M12.9684 30.3145H10.3765V32.8383H12.9684V30.3145Z" fill="#FED81F"/>
<path d="M15.5617 30.3145H12.9697V32.8383H15.5617V30.3145Z" fill="#FED81F"/>
<path d="M18.1642 30.3145H15.5723V32.8383H18.1642V30.3145Z" fill="#C45B28"/>
<path d="M20.755 30.3145H18.1631V32.8383H20.755V30.3145Z" fill="#E5A935"/>
<path d="M23.3479 30.3145H20.7559V32.8383H23.3479V30.3145Z" fill="#E5A935"/>
<path d="M25.9382 30.3145H23.3462V32.8383H25.9382V30.3145Z" fill="#E5A935"/>
<path d="M28.5412 30.3145H25.9492V32.8383H28.5412V30.3145Z" fill="#E5A935"/>
<path d="M31.1315 30.3145H28.5396V32.8383H31.1315V30.3145Z" fill="#E5A935"/>
<path d="M33.7243 30.3145H31.1323V32.8383H33.7243V30.3145Z" fill="#E5A935"/>
<path d="M36.3274 30.3145H33.7354V32.8383H36.3274V30.3145Z" fill="#E5A935"/>
<path d="M38.9176 30.3145H36.3257V32.8383H38.9176V30.3145Z" fill="#E5A935"/>
<path d="M41.5105 30.3145H38.9185V32.8383H41.5105V30.3145Z" fill="#E5A935"/>
<path d="M44.1032 30.3145H41.5112V32.8383H44.1032V30.3145Z" fill="#E5A934"/>
<path d="M46.7038 30.3145H44.1118V32.8383H46.7038V30.3145Z" fill="#E5A935"/>
<path d="M49.2966 30.3145H46.7046V32.8383H49.2966V30.3145Z" fill="#E5A935"/>
<path d="M51.8874 30.3145H49.2954V32.8383H51.8874V30.3145Z" fill="#E5A935"/>
<path d="M54.4896 30.3145H51.8979V32.8383H54.4896V30.3145Z" fill="#E5A935"/>
<path d="M57.0808 30.3145H54.4888V32.8383H57.0808V30.3145Z" fill="#E5A935"/>
<path d="M59.6735 30.3145H57.0815V32.8383H59.6735V30.3145Z" fill="#E5A935"/>
<path d="M62.2663 30.3145H59.6743V32.8383H62.2663V30.3145Z" fill="#E5A935"/>
<path d="M64.8664 30.3145H62.2744V32.8383H64.8664V30.3145Z" fill="#E5A935"/>
<path d="M67.4597 30.3145H64.8677V32.8383H67.4597V30.3145Z" fill="#E5A935"/>
<path d="M70.05 30.3145H67.458V32.8383H70.05V30.3145Z" fill="#E5A935"/>
<path d="M72.6433 30.3145H70.0513V32.8383H72.6433V30.3145Z" fill="#E5A935"/>
<path d="M75.2458 30.3145H72.6538V32.8383H75.2458V30.3145Z" fill="#E5A935"/>
<path d="M77.8361 30.3145H75.2441V32.8383H77.8361V30.3145Z" fill="#E5A935"/>
<path d="M80.4289 30.3145H77.8369V32.8383H80.4289V30.3145Z" fill="#C66029"/>
<path d="M83.0295 30.3145H80.4375V32.8383H83.0295V30.3145Z" fill="#FED81F"/>
<path d="M85.6223 30.3145H83.0303V32.8383H85.6223V30.3145Z" fill="#FED81F"/>
<path d="M88.2155 30.3145H85.6235V32.8383H88.2155V30.3145Z" fill="#FED81F"/>
<path d="M90.8059 30.3145H88.2139V32.8383H90.8059V30.3145Z" fill="#FEE71B"/>
<path d="M93.4089 30.3145H90.8169V32.8383H93.4089V30.3145Z" fill="#4C1E0E"/>
<path d="M5.18475 32.8477H2.59277V35.3715H5.18475V32.8477Z" fill="#4C1E0E"/>
<path d="M7.78536 32.8477H5.19336V35.3715H7.78536V32.8477Z" fill="#FED81F"/>
<path d="M10.3781 32.8477H7.78613V35.3715H10.3781V32.8477Z" fill="#FED81F"/>
<path d="M12.9684 32.8477H10.3765V35.3715H12.9684V32.8477Z" fill="#FED81F"/>
<path d="M15.5617 32.8477H12.9697V35.3715H15.5617V32.8477Z" fill="#C45B28"/>
<path d="M18.1642 32.8477H15.5723V35.3715H18.1642V32.8477Z" fill="#E3A634"/>
<path d="M20.755 32.8477H18.1631V35.3715H20.755V32.8477Z" fill="#E3A633"/>
<path d="M23.3479 32.8477H20.7559V35.3715H23.3479V32.8477Z" fill="#E3A634"/>
<path d="M25.9382 32.8477H23.3462V35.3715H25.9382V32.8477Z" fill="#E4A734"/>
<path d="M28.5412 32.8477H25.9492V35.3715H28.5412V32.8477Z" fill="#E3A634"/>
<path d="M31.1315 32.8477H28.5396V35.3715H31.1315V32.8477Z" fill="#E4A734"/>
<path d="M33.7243 32.8477H31.1323V35.3715H33.7243V32.8477Z" fill="#E3A633"/>
<path d="M36.3274 32.8477H33.7354V35.3715H36.3274V32.8477Z" fill="#E3A634"/>
<path d="M38.9176 32.8477H36.3257V35.3715H38.9176V32.8477Z" fill="#E3A633"/>
<path d="M41.5105 32.8477H38.9185V35.3715H41.5105V32.8477Z" fill="#E3A633"/>
<path d="M44.1032 32.8477H41.5112V35.3715H44.1032V32.8477Z" fill="#E3A633"/>
<path d="M46.7038 32.8477H44.1118V35.3715H46.7038V32.8477Z" fill="#E3A634"/>
<path d="M49.2966 32.8477H46.7046V35.3715H49.2966V32.8477Z" fill="#E3A634"/>
<path d="M51.8874 32.8477H49.2954V35.3715H51.8874V32.8477Z" fill="#E4A734"/>
<path d="M54.4896 32.8477H51.8979V35.3715H54.4896V32.8477Z" fill="#E3A634"/>
<path d="M57.0808 32.8477H54.4888V35.3715H57.0808V32.8477Z" fill="#E3A634"/>
<path d="M59.6735 32.8477H57.0815V35.3715H59.6735V32.8477Z" fill="#E3A634"/>
<path d="M62.2663 32.8477H59.6743V35.3715H62.2663V32.8477Z" fill="#E3A633"/>
<path d="M64.8664 32.8477H62.2744V35.3715H64.8664V32.8477Z" fill="#E3A634"/>
<path d="M67.4597 32.8477H64.8677V35.3715H67.4597V32.8477Z" fill="#E4A734"/>
<path d="M70.05 32.8477H67.458V35.3715H70.05V32.8477Z" fill="#E3A634"/>
<path d="M72.6433 32.8477H70.0513V35.3715H72.6433V32.8477Z" fill="#E4A734"/>
<path d="M75.2458 32.8477H72.6538V35.3715H75.2458V32.8477Z" fill="#E3A633"/>
<path d="M77.8361 32.8477H75.2441V35.3715H77.8361V32.8477Z" fill="#E3A634"/>
<path d="M80.4289 32.8477H77.8369V35.3715H80.4289V32.8477Z" fill="#E3A633"/>
<path d="M83.0295 32.8477H80.4375V35.3715H83.0295V32.8477Z" fill="#C45B28"/>
<path d="M85.6223 32.8477H83.0303V35.3715H85.6223V32.8477Z" fill="#FED81F"/>
<path d="M88.2155 32.8477H85.6235V35.3715H88.2155V32.8477Z" fill="#FED81F"/>
<path d="M90.8059 32.8477H88.2139V35.3715H90.8059V32.8477Z" fill="#FED81F"/>
<path d="M93.4089 32.8477H90.8169V35.3715H93.4089V32.8477Z" fill="#4C1E0E"/>
<path d="M5.18475 35.3711H2.59277V37.8947H5.18475V35.3711Z" fill="#4C1E0E"/>
<path d="M7.78536 35.3711H5.19336V37.8947H7.78536V35.3711Z" fill="#FED81F"/>
<path d="M10.3781 35.3711H7.78613V37.8947H10.3781V35.3711Z" fill="#FED81F"/>
<path d="M12.9684 35.3711H10.3765V37.8947H12.9684V35.3711Z" fill="#FED81F"/>
<path d="M15.5617 35.3711H12.9697V37.8947H15.5617V35.3711Z" fill="#C45B28"/>
<path d="M18.1642 35.3711H15.5723V37.8947H18.1642V35.3711Z" fill="#E2A433"/>
<path d="M20.755 35.3711H18.1631V37.8947H20.755V35.3711Z" fill="#E2A432"/>
<path d="M23.3479 35.3711H20.7559V37.8947H23.3479V35.3711Z" fill="#E2A432"/>
<path d="M25.9382 35.3711H23.3462V37.8947H25.9382V35.3711Z" fill="#E2A433"/>
<path d="M28.5412 35.3711H25.9492V37.8947H28.5412V35.3711Z" fill="#E2A433"/>
<path d="M31.1315 35.3711H28.5396V37.8947H31.1315V35.3711Z" fill="#E2A433"/>
<path d="M33.7243 35.3711H31.1323V37.8947H33.7243V35.3711Z" fill="#E2A433"/>
<path d="M36.3274 35.3711H33.7354V37.8947H36.3274V35.3711Z" fill="#E2A432"/>
<path d="M38.9176 35.3711H36.3257V37.8947H38.9176V35.3711Z" fill="#E2A432"/>
<path d="M41.5105 35.3711H38.9185V37.8947H41.5105V35.3711Z" fill="#E2A432"/>
<path d="M44.1032 35.3711H41.5112V37.8947H44.1032V35.3711Z" fill="#E2A433"/>
<path d="M46.7038 35.3711H44.1118V37.8947H46.7038V35.3711Z" fill="#E2A432"/>
<path d="M49.2966 35.3711H46.7046V37.8947H49.2966V35.3711Z" fill="#E2A432"/>
<path d="M51.8874 35.3711H49.2954V37.8947H51.8874V35.3711Z" fill="#E2A433"/>
<path d="M54.4896 35.3711H51.8979V37.8947H54.4896V35.3711Z" fill="#E2A433"/>
<path d="M57.0808 35.3711H54.4888V37.8947H57.0808V35.3711Z" fill="#E2A432"/>
<path d="M59.6735 35.3711H57.0815V37.8947H59.6735V35.3711Z" fill="#E2A433"/>
<path d="M62.2663 35.3711H59.6743V37.8947H62.2663V35.3711Z" fill="#E2A432"/>
<path d="M64.8664 35.3711H62.2744V37.8947H64.8664V35.3711Z" fill="#E2A432"/>
<path d="M67.4597 35.3711H64.8677V37.8947H67.4597V35.3711Z" fill="#E2A433"/>
<path d="M70.05 35.3711H67.458V37.8947H70.05V35.3711Z" fill="#E2A433"/>
<path d="M72.6433 35.3711H70.0513V37.8947H72.6433V35.3711Z" fill="#E2A433"/>
<path d="M75.2458 35.3711H72.6538V37.8947H75.2458V35.3711Z" fill="#E2A433"/>
<path d="M77.8361 35.3711H75.2441V37.8947H77.8361V35.3711Z" fill="#E2A432"/>
<path d="M80.4289 35.3711H77.8369V37.8947H80.4289V35.3711Z" fill="#E2A432"/>
<path d="M83.0295 35.3711H80.4375V37.8947H83.0295V35.3711Z" fill="#E2A432"/>
<path d="M85.6223 35.3711H83.0303V37.8947H85.6223V35.3711Z" fill="#FED81F"/>
<path d="M88.2155 35.3711H85.6235V37.8947H88.2155V35.3711Z" fill="#FED81F"/>
<path d="M90.8059 35.3711H88.2139V37.8947H90.8059V35.3711Z" fill="#FED81F"/>
<path d="M93.4089 35.3711H90.8169V37.8947H93.4089V35.3711Z" fill="#4C1E0E"/>
<path d="M5.18475 37.8945H2.59277V40.4183H5.18475V37.8945Z" fill="#FEE81B"/>
<path d="M7.78536 37.8945H5.19336V40.4183H7.78536V37.8945Z" fill="#FED81F"/>
<path d="M10.3781 37.8945H7.78613V40.4183H10.3781V37.8945Z" fill="#FED81F"/>
<path d="M12.9684 37.8945H10.3765V40.4183H12.9684V37.8945Z" fill="#FED81F"/>
<path d="M15.5617 37.8945H12.9697V40.4183H15.5617V37.8945Z" fill="#E0A131"/>
<path d="M18.1642 37.8945H15.5723V40.4183H18.1642V37.8945Z" fill="#E1A132"/>
<path d="M20.755 37.8945H18.1631V40.4183H20.755V37.8945Z" fill="#E0A131"/>
<path d="M23.3479 37.8945H20.7559V40.4183H23.3479V37.8945Z" fill="#E0A131"/>
<path d="M25.9382 37.8945H23.3462V40.4183H25.9382V37.8945Z" fill="#E0A132"/>
<path d="M28.5412 37.8945H25.9492V40.4183H28.5412V37.8945Z" fill="#E0A131"/>
<path d="M31.1315 37.8945H28.5396V40.4183H31.1315V37.8945Z" fill="#E0A131"/>
<path d="M33.7243 37.8945H31.1323V40.4183H33.7243V37.8945Z" fill="#E0A131"/>
<path d="M36.3274 37.8945H33.7354V40.4183H36.3274V37.8945Z" fill="#E0A131"/>
<path d="M38.9176 37.8945H36.3257V40.4183H38.9176V37.8945Z" fill="#E1A132"/>
<path d="M41.5105 37.8945H38.9185V40.4183H41.5105V37.8945Z" fill="#E0A131"/>
<path d="M44.1032 37.8945H41.5112V40.4183H44.1032V37.8945Z" fill="#E0A131"/>
<path d="M46.7038 37.8945H44.1118V40.4183H46.7038V37.8945Z" fill="#E0A131"/>
<path d="M49.2966 37.8945H46.7046V40.4183H49.2966V37.8945Z" fill="#E0A131"/>
<path d="M51.8874 37.8945H49.2954V40.4183H51.8874V37.8945Z" fill="#E1A131"/>
<path d="M54.4896 37.8945H51.8979V40.4183H54.4896V37.8945Z" fill="#E0A132"/>
<path d="M57.0808 37.8945H54.4888V40.4183H57.0808V37.8945Z" fill="#E0A131"/>
<path d="M59.6735 37.8945H57.0815V40.4183H59.6735V37.8945Z" fill="#E1A132"/>
<path d="M62.2663 37.8945H59.6743V40.4183H62.2663V37.8945Z" fill="#E0A131"/>
<path d="M64.8664 37.8945H62.2744V40.4183H64.8664V37.8945Z" fill="#E0A131"/>
<path d="M67.4597 37.8945H64.8677V40.4183H67.4597V37.8945Z" fill="#E0A132"/>
<path d="M70.05 37.8945H67.458V40.4183H70.05V37.8945Z" fill="#E0A131"/>
<path d="M72.6433 37.8945H70.0513V40.4183H72.6433V37.8945Z" fill="#E0A131"/>
<path d="M75.2458 37.8945H72.6538V40.4183H75.2458V37.8945Z" fill="#E0A131"/>
<path d="M77.8361 37.8945H75.2441V40.4183H77.8361V37.8945Z" fill="#E0A131"/>
<path d="M80.4289 37.8945H77.8369V40.4183H80.4289V37.8945Z" fill="#E1A132"/>
<path d="M83.0295 37.8945H80.4375V40.4183H83.0295V37.8945Z" fill="#E0A131"/>
<path d="M85.6223 37.8945H83.0303V40.4183H85.6223V37.8945Z" fill="#FED81F"/>
<path d="M88.2155 37.8945H85.6235V40.4183H88.2155V37.8945Z" fill="#FED81F"/>
<path d="M90.8059 37.8945H88.2139V40.4183H90.8059V37.8945Z" fill="#FED81F"/>
<path d="M93.4089 37.8945H90.8169V40.4183H93.4089V37.8945Z" fill="#FEE81B"/>
<path d="M5.18475 40.418H2.59277V42.9417H5.18475V40.418Z" fill="#FED81F"/>
<path d="M7.78536 40.418H5.19336V42.9417H7.78536V40.418Z" fill="#FED81F"/>
<path d="M10.3781 40.418H7.78613V42.9417H10.3781V40.418Z" fill="#FED81F"/>
<path d="M12.9684 40.418H10.3765V42.9417H12.9684V40.418Z" fill="#EFB922"/>
<path d="M15.5617 40.418H12.9697V42.9417H15.5617V40.418Z" fill="#DF9E30"/>
<path d="M18.1642 40.418H15.5723V42.9417H18.1642V40.418Z" fill="#DF9E30"/>
<path d="M20.755 40.418H18.1631V42.9417H20.755V40.418Z" fill="#DF9F30"/>
<path d="M23.3479 40.418H20.7559V42.9417H23.3479V40.418Z" fill="#DF9F31"/>
<path d="M25.9382 40.418H23.3462V42.9417H25.9382V40.418Z" fill="#DF9E30"/>
<path d="M28.5412 40.418H25.9492V42.9417H28.5412V40.418Z" fill="#DF9E30"/>
<path d="M31.1315 40.418H28.5396V42.9417H31.1315V40.418Z" fill="#DF9E30"/>
<path d="M33.7243 40.418H31.1323V42.9417H33.7243V40.418Z" fill="#DF9E30"/>
<path d="M36.3274 40.418H33.7354V42.9417H36.3274V40.418Z" fill="#DF9E30"/>
<path d="M38.9176 40.418H36.3257V42.9417H38.9176V40.418Z" fill="#DF9E2F"/>
<path d="M41.5105 40.418H38.9185V42.9417H41.5105V40.418Z" fill="#DF9E30"/>
<path d="M44.1032 40.418H41.5112V42.9417H44.1032V40.418Z" fill="#DF9E30"/>
<path d="M46.7038 40.418H44.1118V42.9417H46.7038V40.418Z" fill="#DF9E30"/>
<path d="M49.2966 40.418H46.7046V42.9417H49.2966V40.418Z" fill="#DF9E30"/>
<path d="M51.8874 40.418H49.2954V42.9417H51.8874V40.418Z" fill="#DF9E30"/>
<path d="M54.4896 40.418H51.8979V42.9417H54.4896V40.418Z" fill="#DF9F31"/>
<path d="M57.0808 40.418H54.4888V42.9417H57.0808V40.418Z" fill="#DF9E30"/>
<path d="M59.6735 40.418H57.0815V42.9417H59.6735V40.418Z" fill="#DF9E30"/>
<path d="M62.2663 40.418H59.6743V42.9417H62.2663V40.418Z" fill="#DF9F30"/>
<path d="M64.8664 40.418H62.2744V42.9417H64.8664V40.418Z" fill="#DF9F31"/>
<path d="M67.4597 40.418H64.8677V42.9417H67.4597V40.418Z" fill="#DF9E30"/>
<path d="M70.05 40.418H67.458V42.9417H70.05V40.418Z" fill="#DF9E30"/>
<path d="M72.6433 40.418H70.0513V42.9417H72.6433V40.418Z" fill="#DF9E30"/>
<path d="M75.2458 40.418H72.6538V42.9417H75.2458V40.418Z" fill="#DF9E30"/>
<path d="M77.8361 40.418H75.2441V42.9417H77.8361V40.418Z" fill="#DF9E30"/>
<path d="M80.4289 40.418H77.8369V42.9417H80.4289V40.418Z" fill="#DF9E2F"/>
<path d="M83.0295 40.418H80.4375V42.9417H83.0295V40.418Z" fill="#DF9E30"/>
<path d="M85.6223 40.418H83.0303V42.9417H85.6223V40.418Z" fill="#C45B28"/>
<path d="M88.2155 40.418H85.6235V42.9417H88.2155V40.418Z" fill="#FED81F"/>
<path d="M90.8059 40.418H88.2139V42.9417H90.8059V40.418Z" fill="#FED81F"/>
<path d="M93.4089 40.418H90.8169V42.9417H93.4089V40.418Z" fill="#FED81F"/>
<path d="M96 37.8945H93.4736V60.6312H96V37.8945Z" fill="#4C1E0E"/>
<path d="M2.59198 42.9531H0V45.4769H2.59198V42.9531Z" fill="#4C1E0E"/>
<path d="M5.18475 42.9531H2.59277V45.4769H5.18475V42.9531Z" fill="#FED81F"/>
<path d="M7.78536 42.9531H5.19336V45.4769H7.78536V42.9531Z" fill="#FED81F"/>
<path d="M10.3781 42.9531H7.78613V45.4769H10.3781V42.9531Z" fill="#FED81F"/>
<path d="M12.9684 42.9531H10.3765V45.4769H12.9684V42.9531Z" fill="#C45B28"/>
<path d="M15.5617 42.9531H12.9697V45.4769H15.5617V42.9531Z" fill="#DD9B2F"/>
<path d="M18.1642 42.9531H15.5723V45.4769H18.1642V42.9531Z" fill="#DD9B2F"/>
<path d="M20.755 42.9531H18.1631V45.4769H20.755V42.9531Z" fill="#DD9B2E"/>
<path d="M23.3479 42.9531H20.7559V45.4769H23.3479V42.9531Z" fill="#DD9B2F"/>
<path d="M25.9382 42.9531H23.3462V45.4769H25.9382V42.9531Z" fill="#DD9B2E"/>
<path d="M28.5412 42.9531H25.9492V45.4769H28.5412V42.9531Z" fill="#DD9B2E"/>
<path d="M31.1315 42.9531H28.5396V45.4769H31.1315V42.9531Z" fill="#DD9C2F"/>
<path d="M33.7243 42.9531H31.1323V45.4769H33.7243V42.9531Z" fill="#DD9C2F"/>
<path d="M36.3274 42.9531H33.7354V45.4769H36.3274V42.9531Z" fill="#DD9B2F"/>
<path d="M38.9176 42.9531H36.3257V45.4769H38.9176V42.9531Z" fill="#DD9B2E"/>
<path d="M41.5105 42.9531H38.9185V45.4769H41.5105V42.9531Z" fill="#DD9B2F"/>
<path d="M44.1032 42.9531H41.5112V45.4769H44.1032V42.9531Z" fill="#DD9C2F"/>
<path d="M46.7038 42.9531H44.1118V45.4769H46.7038V42.9531Z" fill="#DD9B2F"/>
<path d="M49.2966 42.9531H46.7046V45.4769H49.2966V42.9531Z" fill="#DD9B2E"/>
<path d="M51.8874 42.9531H49.2954V45.4769H51.8874V42.9531Z" fill="#DE9C2F"/>
<path d="M54.4896 42.9531H51.8979V45.4769H54.4896V42.9531Z" fill="#DD9B2F"/>
<path d="M57.0808 42.9531H54.4888V45.4769H57.0808V42.9531Z" fill="#DD9B2F"/>
<path d="M59.6735 42.9531H57.0815V45.4769H59.6735V42.9531Z" fill="#DD9B2F"/>
<path d="M62.2663 42.9531H59.6743V45.4769H62.2663V42.9531Z" fill="#DD9B2E"/>
<path d="M64.8664 42.9531H62.2744V45.4769H64.8664V42.9531Z" fill="#DD9B2F"/>
<path d="M67.4597 42.9531H64.8677V45.4769H67.4597V42.9531Z" fill="#DD9B2E"/>
<path d="M70.05 42.9531H67.458V45.4769H70.05V42.9531Z" fill="#DD9B2E"/>
<path d="M72.6433 42.9531H70.0513V45.4769H72.6433V42.9531Z" fill="#DD9C2F"/>
<path d="M75.2458 42.9531H72.6538V45.4769H75.2458V42.9531Z" fill="#DD9C2F"/>
<path d="M77.8361 42.9531H75.2441V45.4769H77.8361V42.9531Z" fill="#DD9B2F"/>
<path d="M80.4289 42.9531H77.8369V45.4769H80.4289V42.9531Z" fill="#DD9B2E"/>
<path d="M83.0295 42.9531H80.4375V45.4769H83.0295V42.9531Z" fill="#DD9B2F"/>
<path d="M85.6223 42.9531H83.0303V45.4769H85.6223V42.9531Z" fill="#C45B28"/>
<path d="M88.2155 42.9531H85.6235V45.4769H88.2155V42.9531Z" fill="#FED81F"/>
<path d="M90.8059 42.9531H88.2139V45.4769H90.8059V42.9531Z" fill="#FED81F"/>
<path d="M93.4089 42.9531H90.8169V45.4769H93.4089V42.9531Z" fill="#FED81F"/>
<path d="M95.9992 42.9531H93.4072V45.4769H95.9992V42.9531Z" fill="#4C1E0E"/>
<path d="M2.52631 37.8945H0V60.6312H2.52631V37.8945Z" fill="#4C1E0E"/>
<path d="M5.18475 45.4766H2.59277V48.0003H5.18475V45.4766Z" fill="#FED81F"/>
<path d="M7.78536 45.4766H5.19336V48.0003H7.78536V45.4766Z" fill="#FED81F"/>
<path d="M10.3781 45.4766H7.78613V48.0003H10.3781V45.4766Z" fill="#FED81F"/>
<path d="M12.9684 45.4766H10.3765V48.0003H12.9684V45.4766Z" fill="#D17E2B"/>
<path d="M15.5617 45.4766H12.9697V48.0003H15.5617V45.4766Z" fill="#DC992D"/>
<path d="M18.1642 45.4766H15.5723V48.0003H18.1642V45.4766Z" fill="#DC992E"/>
<path d="M20.755 45.4766H18.1631V48.0003H20.755V45.4766Z" fill="#DC992D"/>
<path d="M23.3479 45.4766H20.7559V48.0003H23.3479V45.4766Z" fill="#DC992D"/>
<path d="M25.9382 45.4766H23.3462V48.0003H25.9382V45.4766Z" fill="#DC992E"/>
<path d="M28.5412 45.4766H25.9492V48.0003H28.5412V45.4766Z" fill="#DC992D"/>
<path d="M31.1315 45.4766H28.5396V48.0003H31.1315V45.4766Z" fill="#DC992E"/>
<path d="M33.7243 45.4766H31.1323V48.0003H33.7243V45.4766Z" fill="#DC992E"/>
<path d="M36.3274 45.4766H33.7354V48.0003H36.3274V45.4766Z" fill="#DC992D"/>
<path d="M38.9176 45.4766H36.3257V48.0003H38.9176V45.4766Z" fill="#DC992D"/>
<path d="M41.5105 45.4766H38.9185V48.0003H41.5105V45.4766Z" fill="#DC992D"/>
<path d="M44.1032 45.4766H41.5112V48.0003H44.1032V45.4766Z" fill="#DC992D"/>
<path d="M46.7038 45.4766H44.1118V48.0003H46.7038V45.4766Z" fill="#DC992D"/>
<path d="M49.2966 45.4766H46.7046V48.0003H49.2966V45.4766Z" fill="#DC992D"/>
<path d="M51.8874 45.4766H49.2954V48.0003H51.8874V45.4766Z" fill="#DC992D"/>
<path d="M54.4896 45.4766H51.8979V48.0003H54.4896V45.4766Z" fill="#DC992D"/>
<path d="M57.0808 45.4766H54.4888V48.0003H57.0808V45.4766Z" fill="#DC992D"/>
<path d="M59.6735 45.4766H57.0815V48.0003H59.6735V45.4766Z" fill="#DC992E"/>
<path d="M62.2663 45.4766H59.6743V48.0003H62.2663V45.4766Z" fill="#DC992D"/>
<path d="M64.8664 45.4766H62.2744V48.0003H64.8664V45.4766Z" fill="#DC992D"/>
<path d="M67.4597 45.4766H64.8677V48.0003H67.4597V45.4766Z" fill="#DC992E"/>
<path d="M70.05 45.4766H67.458V48.0003H70.05V45.4766Z" fill="#DC992D"/>
<path d="M72.6433 45.4766H70.0513V48.0003H72.6433V45.4766Z" fill="#DC992E"/>
<path d="M75.2458 45.4766H72.6538V48.0003H75.2458V45.4766Z" fill="#DC992E"/>
<path d="M77.8361 45.4766H75.2441V48.0003H77.8361V45.4766Z" fill="#DC992D"/>
<path d="M80.4289 45.4766H77.8369V48.0003H80.4289V45.4766Z" fill="#DC992D"/>
<path d="M83.0295 45.4766H80.4375V48.0003H83.0295V45.4766Z" fill="#DC992D"/>
<path d="M85.6223 45.4766H83.0303V48.0003H85.6223V45.4766Z" fill="#DC992D"/>
<path d="M88.2155 45.4766H85.6235V48.0003H88.2155V45.4766Z" fill="#FED81F"/>
<path d="M90.8059 45.4766H88.2139V48.0003H90.8059V45.4766Z" fill="#FED81F"/>
<path d="M93.4089 45.4766H90.8169V48.0003H93.4089V45.4766Z" fill="#FED81F"/>
<path d="M95.9992 45.4766H93.4072V48.0003H95.9992V45.4766Z" fill="#4C1E0E"/>
<path d="M2.59198 48H0V50.5237H2.59198V48Z" fill="#4C1E0E"/>
<path d="M5.18475 48H2.59277V50.5237H5.18475V48Z" fill="#FEB826"/>
<path d="M7.78536 48H5.19336V50.5237H7.78536V48Z" fill="#FED81F"/>
<path d="M10.3781 48H7.78613V50.5237H10.3781V48Z" fill="#FED81F"/>
<path d="M12.9684 48H10.3765V50.5237H12.9684V48Z" fill="#F5DE1C"/>
<path d="M15.5617 48H12.9697V50.5237H15.5617V48Z" fill="#DA962C"/>
<path d="M18.1642 48H15.5723V50.5237H18.1642V48Z" fill="#DA962C"/>
<path d="M20.755 48H18.1631V50.5237H20.755V48Z" fill="#DA962C"/>
<path d="M23.3479 48H20.7559V50.5237H23.3479V48Z" fill="#DA962C"/>
<path d="M25.9382 48H23.3462V50.5237H25.9382V48Z" fill="#DA962C"/>
<path d="M28.5412 48H25.9492V50.5237H28.5412V48Z" fill="#DA962C"/>
<path d="M31.1315 48H28.5396V50.5237H31.1315V48Z" fill="#DA962C"/>
<path d="M33.7243 48H31.1323V50.5237H33.7243V48Z" fill="#DA962C"/>
<path d="M36.3274 48H33.7354V50.5237H36.3274V48Z" fill="#DA962C"/>
<path d="M38.9176 48H36.3257V50.5237H38.9176V48Z" fill="#DA962C"/>
<path d="M41.5105 48H38.9185V50.5237H41.5105V48Z" fill="#DA962D"/>
<path d="M44.1032 48H41.5112V50.5237H44.1032V48Z" fill="#DA962C"/>
<path d="M46.7038 48H44.1118V50.5237H46.7038V48Z" fill="#DA962C"/>
<path d="M49.2966 48H46.7046V50.5237H49.2966V48Z" fill="#DA962C"/>
<path d="M51.8874 48H49.2954V50.5237H51.8874V48Z" fill="#DA962C"/>
<path d="M54.4896 48H51.8979V50.5237H54.4896V48Z" fill="#DA962B"/>
<path d="M57.0808 48H54.4888V50.5237H57.0808V48Z" fill="#DA962C"/>
<path d="M59.6735 48H57.0815V50.5237H59.6735V48Z" fill="#DA962C"/>
<path d="M62.2663 48H59.6743V50.5237H62.2663V48Z" fill="#DA962C"/>
<path d="M64.8664 48H62.2744V50.5237H64.8664V48Z" fill="#DA962C"/>
<path d="M67.4597 48H64.8677V50.5237H67.4597V48Z" fill="#DA962C"/>
<path d="M70.05 48H67.458V50.5237H70.05V48Z" fill="#DA962C"/>
<path d="M72.6433 48H70.0513V50.5237H72.6433V48Z" fill="#DA962C"/>
<path d="M75.2458 48H72.6538V50.5237H75.2458V48Z" fill="#DA962C"/>
<path d="M77.8361 48H75.2441V50.5237H77.8361V48Z" fill="#DA962C"/>
<path d="M80.4289 48H77.8369V50.5237H80.4289V48Z" fill="#DA962C"/>
<path d="M83.0295 48H80.4375V50.5237H83.0295V48Z" fill="#DA962D"/>
<path d="M85.6223 48H83.0303V50.5237H85.6223V48Z" fill="#DA962C"/>
<path d="M88.2155 48H85.6235V50.5237H88.2155V48Z" fill="#FED81F"/>
<path d="M90.8059 48H88.2139V50.5237H90.8059V48Z" fill="#FED81F"/>
<path d="M93.4089 48H90.8169V50.5237H93.4089V48Z" fill="#FEB826"/>
<path d="M95.9992 48H93.4072V50.5237H95.9992V48Z" fill="#4C1E0E"/>
<path d="M2.59198 50.5332H0V53.0573H2.59198V50.5332Z" fill="#4C1E0E"/>
<path d="M5.18475 50.5332H2.59277V53.0573H5.18475V50.5332Z" fill="#FCC342"/>
<path d="M7.78536 50.5332H5.19336V53.0573H7.78536V50.5332Z" fill="#FEB826"/>
<path d="M10.3781 50.5332H7.78613V53.0573H10.3781V50.5332Z" fill="#FED81F"/>
<path d="M12.9684 50.5332H10.3765V53.0573H12.9684V50.5332Z" fill="#FED81F"/>
<path d="M15.5617 50.5332H12.9697V53.0573H15.5617V50.5332Z" fill="#D8932B"/>
<path d="M18.1642 50.5332H15.5723V53.0573H18.1642V50.5332Z" fill="#D9942B"/>
<path d="M20.755 50.5332H18.1631V53.0573H20.755V50.5332Z" fill="#D9932B"/>
<path d="M23.3479 50.5332H20.7559V53.0573H23.3479V50.5332Z" fill="#D9932B"/>
<path d="M25.9382 50.5332H23.3462V53.0573H25.9382V50.5332Z" fill="#D8932A"/>
<path d="M28.5412 50.5332H25.9492V53.0573H28.5412V50.5332Z" fill="#D8932B"/>
<path d="M31.1315 50.5332H28.5396V53.0573H31.1315V50.5332Z" fill="#D9932B"/>
<path d="M33.7243 50.5332H31.1323V53.0573H33.7243V50.5332Z" fill="#D8932B"/>
<path d="M36.3274 50.5332H33.7354V53.0573H36.3274V50.5332Z" fill="#D8932B"/>
<path d="M38.9176 50.5332H36.3257V53.0573H38.9176V50.5332Z" fill="#D8932B"/>
<path d="M41.5105 50.5332H38.9185V53.0573H41.5105V50.5332Z" fill="#D9942C"/>
<path d="M44.1032 50.5332H41.5112V53.0573H44.1032V50.5332Z" fill="#D8932B"/>
<path d="M46.7038 50.5332H44.1118V53.0573H46.7038V50.5332Z" fill="#D8932B"/>
<path d="M49.2966 50.5332H46.7046V53.0573H49.2966V50.5332Z" fill="#D9942B"/>
<path d="M51.8874 50.5332H49.2954V53.0573H51.8874V50.5332Z" fill="#D9932B"/>
<path d="M54.4896 50.5332H51.8979V53.0573H54.4896V50.5332Z" fill="#D9932B"/>
<path d="M57.0808 50.5332H54.4888V53.0573H57.0808V50.5332Z" fill="#D8932B"/>
<path d="M59.6735 50.5332H57.0815V53.0573H59.6735V50.5332Z" fill="#D9942B"/>
<path d="M62.2663 50.5332H59.6743V53.0573H62.2663V50.5332Z" fill="#D9932B"/>
<path d="M64.8664 50.5332H62.2744V53.0573H64.8664V50.5332Z" fill="#D9932B"/>
<path d="M67.4597 50.5332H64.8677V53.0573H67.4597V50.5332Z" fill="#D8932A"/>
<path d="M70.05 50.5332H67.458V53.0573H70.05V50.5332Z" fill="#D8932B"/>
<path d="M72.6433 50.5332H70.0513V53.0573H72.6433V50.5332Z" fill="#D9932B"/>
<path d="M75.2458 50.5332H72.6538V53.0573H75.2458V50.5332Z" fill="#D8932B"/>
<path d="M77.8361 50.5332H75.2441V53.0573H77.8361V50.5332Z" fill="#D8932B"/>
<path d="M80.4289 50.5332H77.8369V53.0573H80.4289V50.5332Z" fill="#D8932B"/>
<path d="M83.0295 50.5332H80.4375V53.0573H83.0295V50.5332Z" fill="#D9942C"/>
<path d="M85.6223 50.5332H83.0303V53.0573H85.6223V50.5332Z" fill="#F7DC1D"/>
<path d="M88.2155 50.5332H85.6235V53.0573H88.2155V50.5332Z" fill="#FED81F"/>
<path d="M90.8059 50.5332H88.2139V53.0573H90.8059V50.5332Z" fill="#FEB826"/>
<path d="M93.4089 50.5332H90.8169V53.0573H93.4089V50.5332Z" fill="#FEB826"/>
<path d="M95.9992 50.5332H93.4072V53.0573H95.9992V50.5332Z" fill="#4C1E0E"/>
<path d="M2.59198 53.0586H0V55.5823H2.59198V53.0586Z" fill="#4C1E0E"/>
<path d="M5.18475 53.0586H2.59277V55.5823H5.18475V53.0586Z" fill="#AA5900"/>
<path d="M7.78536 53.0586H5.19336V55.5823H7.78536V53.0586Z" fill="#FEB826"/>
<path d="M10.3781 53.0586H7.78613V55.5823H10.3781V53.0586Z" fill="#FEB826"/>
<path d="M12.9684 53.0586H10.3765V55.5823H12.9684V53.0586Z" fill="#FEB826"/>
<path d="M15.5617 53.0586H12.9697V55.5823H15.5617V53.0586Z" fill="#D7902A"/>
<path d="M18.1642 53.0586H15.5723V55.5823H18.1642V53.0586Z" fill="#D7902A"/>
<path d="M20.755 53.0586H18.1631V55.5823H20.755V53.0586Z" fill="#D7902A"/>
<path d="M23.3479 53.0586H20.7559V55.5823H23.3479V53.0586Z" fill="#D79029"/>
<path d="M25.9382 53.0586H23.3462V55.5823H25.9382V53.0586Z" fill="#D8912A"/>
<path d="M28.5412 53.0586H25.9492V55.5823H28.5412V53.0586Z" fill="#D79029"/>
<path d="M31.1315 53.0586H28.5396V55.5823H31.1315V53.0586Z" fill="#D7902A"/>
<path d="M33.7243 53.0586H31.1323V55.5823H33.7243V53.0586Z" fill="#D79029"/>
<path d="M36.3274 53.0586H33.7354V55.5823H36.3274V53.0586Z" fill="#D7902A"/>
<path d="M38.9176 53.0586H36.3257V55.5823H38.9176V53.0586Z" fill="#D7902A"/>
<path d="M41.5105 53.0586H38.9185V55.5823H41.5105V53.0586Z" fill="#D7902A"/>
<path d="M44.1032 53.0586H41.5112V55.5823H44.1032V53.0586Z" fill="#D79029"/>
<path d="M46.7038 53.0586H44.1118V55.5823H46.7038V53.0586Z" fill="#D7902A"/>
<path d="M49.2966 53.0586H46.7046V55.5823H49.2966V53.0586Z" fill="#D79029"/>
<path d="M51.8874 53.0586H49.2954V55.5823H51.8874V53.0586Z" fill="#D7902A"/>
<path d="M54.4896 53.0586H51.8979V55.5823H54.4896V53.0586Z" fill="#D79029"/>
<path d="M57.0808 53.0586H54.4888V55.5823H57.0808V53.0586Z" fill="#D7902A"/>
<path d="M59.6735 53.0586H57.0815V55.5823H59.6735V53.0586Z" fill="#D7902A"/>
<path d="M62.2663 53.0586H59.6743V55.5823H62.2663V53.0586Z" fill="#D7902A"/>
<path d="M64.8664 53.0586H62.2744V55.5823H64.8664V53.0586Z" fill="#D79029"/>
<path d="M67.4597 53.0586H64.8677V55.5823H67.4597V53.0586Z" fill="#D8912A"/>
<path d="M70.05 53.0586H67.458V55.5823H70.05V53.0586Z" fill="#D79029"/>
<path d="M72.6433 53.0586H70.0513V55.5823H72.6433V53.0586Z" fill="#D7902A"/>
<path d="M75.2458 53.0586H72.6538V55.5823H75.2458V53.0586Z" fill="#D79029"/>
<path d="M77.8361 53.0586H75.2441V55.5823H77.8361V53.0586Z" fill="#D7902A"/>
<path d="M80.4289 53.0586H77.8369V55.5823H80.4289V53.0586Z" fill="#D7902A"/>
<path d="M83.0295 53.0586H80.4375V55.5823H83.0295V53.0586Z" fill="#D7902A"/>
<path d="M85.6223 53.0586H83.0303V55.5823H85.6223V53.0586Z" fill="#FEB826"/>
<path d="M88.2155 53.0586H85.6235V55.5823H88.2155V53.0586Z" fill="#FEB826"/>
<path d="M90.8059 53.0586H88.2139V55.5823H90.8059V53.0586Z" fill="#FEB826"/>
<path d="M93.4089 53.0586H90.8169V55.5823H93.4089V53.0586Z" fill="#FEB826"/>
<path d="M95.9992 53.0586H93.4072V55.5823H95.9992V53.0586Z" fill="#4C1E0E"/>
<path d="M5.18475 55.582H2.59277V58.1062H5.18475V55.582Z" fill="#A55502"/>
<path d="M7.78536 55.582H5.19336V58.1062H7.78536V55.582Z" fill="#FEB826"/>
<path d="M10.3781 55.582H7.78613V58.1062H10.3781V55.582Z" fill="#FEB826"/>
<path d="M12.9684 55.582H10.3765V58.1062H12.9684V55.582Z" fill="#FEB826"/>
<path d="M15.5617 55.582H12.9697V58.1062H15.5617V55.582Z" fill="#D58D28"/>
<path d="M18.1642 55.582H15.5723V58.1062H18.1642V55.582Z" fill="#D58D28"/>
<path d="M20.755 55.582H18.1631V58.1062H20.755V55.582Z" fill="#D58D28"/>
<path d="M23.3479 55.582H20.7559V58.1062H23.3479V55.582Z" fill="#D68E29"/>
<path d="M25.9382 55.582H23.3462V58.1062H25.9382V55.582Z" fill="#D68E29"/>
<path d="M28.5412 55.582H25.9492V58.1062H28.5412V55.582Z" fill="#D58D29"/>
<path d="M31.1315 55.582H28.5396V58.1062H31.1315V55.582Z" fill="#D58D28"/>
<path d="M33.7243 55.582H31.1323V58.1062H33.7243V55.582Z" fill="#D58D28"/>
<path d="M36.3274 55.582H33.7354V58.1062H36.3274V55.582Z" fill="#D68E29"/>
<path d="M38.9176 55.582H36.3257V58.1062H38.9176V55.582Z" fill="#D58D28"/>
<path d="M41.5105 55.582H38.9185V58.1062H41.5105V55.582Z" fill="#D58D28"/>
<path d="M44.1032 55.582H41.5112V58.1062H44.1032V55.582Z" fill="#D68E29"/>
<path d="M46.7038 55.582H44.1118V58.1062H46.7038V55.582Z" fill="#D58D28"/>
<path d="M49.2966 55.582H46.7046V58.1062H49.2966V55.582Z" fill="#D58D28"/>
<path d="M51.8874 55.582H49.2954V58.1062H51.8874V55.582Z" fill="#D58D27"/>
<path d="M54.4896 55.582H51.8979V58.1062H54.4896V55.582Z" fill="#D58D28"/>
<path d="M57.0808 55.582H54.4888V58.1062H57.0808V55.582Z" fill="#D58D28"/>
<path d="M59.6735 55.582H57.0815V58.1062H59.6735V55.582Z" fill="#D58D28"/>
<path d="M62.2663 55.582H59.6743V58.1062H62.2663V55.582Z" fill="#D58D28"/>
<path d="M64.8664 55.582H62.2744V58.1062H64.8664V55.582Z" fill="#D68E29"/>
<path d="M67.4597 55.582H64.8677V58.1062H67.4597V55.582Z" fill="#D68E29"/>
<path d="M70.05 55.582H67.458V58.1062H70.05V55.582Z" fill="#D58D29"/>
<path d="M72.6433 55.582H70.0513V58.1062H72.6433V55.582Z" fill="#D58D28"/>
<path d="M75.2458 55.582H72.6538V58.1062H75.2458V55.582Z" fill="#D58D28"/>
<path d="M77.8361 55.582H75.2441V58.1062H77.8361V55.582Z" fill="#D68E29"/>
<path d="M80.4289 55.582H77.8369V58.1062H80.4289V55.582Z" fill="#D58D28"/>
<path d="M83.0295 55.582H80.4375V58.1062H83.0295V55.582Z" fill="#D58D28"/>
<path d="M85.6223 55.582H83.0303V58.1062H85.6223V55.582Z" fill="#FEB826"/>
<path d="M88.2155 55.582H85.6235V58.1062H88.2155V55.582Z" fill="#FEB826"/>
<path d="M90.8059 55.582H88.2139V58.1062H90.8059V55.582Z" fill="#FEB826"/>
<path d="M93.4089 55.582H90.8169V58.1062H93.4089V55.582Z" fill="#AA5900"/>
<path d="M95.9992 55.582H93.4072V58.1062H95.9992V55.582Z" fill="#4C1E0E"/>
<path d="M5.18475 58.1055H2.59277V60.6292H5.18475V58.1055Z" fill="#894306"/>
<path d="M7.78536 58.1055H5.19336V60.6292H7.78536V58.1055Z" fill="#FEB826"/>
<path d="M10.3781 58.1055H7.78613V60.6292H10.3781V58.1055Z" fill="#FEB826"/>
<path d="M12.9684 58.1055H10.3765V60.6292H12.9684V58.1055Z" fill="#FEB826"/>
<path d="M15.5617 58.1055H12.9697V60.6292H15.5617V58.1055Z" fill="#F3DB1B"/>
<path d="M18.1642 58.1055H15.5723V60.6292H18.1642V58.1055Z" fill="#D58B28"/>
<path d="M20.755 58.1055H18.1631V60.6292H20.755V58.1055Z" fill="#D48B27"/>
<path d="M23.3479 58.1055H20.7559V60.6292H23.3479V58.1055Z" fill="#D48B26"/>
<path d="M25.9382 58.1055H23.3462V60.6292H25.9382V58.1055Z" fill="#D48B27"/>
<path d="M28.5412 58.1055H25.9492V60.6292H28.5412V58.1055Z" fill="#D48B27"/>
<path d="M31.1315 58.1055H28.5396V60.6292H31.1315V58.1055Z" fill="#D48B28"/>
<path d="M33.7243 58.1055H31.1323V60.6292H33.7243V58.1055Z" fill="#D48B27"/>
<path d="M36.3274 58.1055H33.7354V60.6292H36.3274V58.1055Z" fill="#D48B26"/>
<path d="M38.9176 58.1055H36.3257V60.6292H38.9176V58.1055Z" fill="#D48B27"/>
<path d="M41.5105 58.1055H38.9185V60.6292H41.5105V58.1055Z" fill="#D48B27"/>
<path d="M44.1032 58.1055H41.5112V60.6292H44.1032V58.1055Z" fill="#D48B27"/>
<path d="M46.7038 58.1055H44.1118V60.6292H46.7038V58.1055Z" fill="#D48B28"/>
<path d="M49.2966 58.1055H46.7046V60.6292H49.2966V58.1055Z" fill="#D48B27"/>
<path d="M51.8874 58.1055H49.2954V60.6292H51.8874V58.1055Z" fill="#D48B28"/>
<path d="M54.4896 58.1055H51.8979V60.6292H54.4896V58.1055Z" fill="#D48B27"/>
<path d="M57.0808 58.1055H54.4888V60.6292H57.0808V58.1055Z" fill="#D48B27"/>
<path d="M59.6735 58.1055H57.0815V60.6292H59.6735V58.1055Z" fill="#D58B28"/>
<path d="M62.2663 58.1055H59.6743V60.6292H62.2663V58.1055Z" fill="#D48B27"/>
<path d="M64.8664 58.1055H62.2744V60.6292H64.8664V58.1055Z" fill="#D48B26"/>
<path d="M67.4597 58.1055H64.8677V60.6292H67.4597V58.1055Z" fill="#D48B27"/>
<path d="M70.05 58.1055H67.458V60.6292H70.05V58.1055Z" fill="#D48B27"/>
<path d="M72.6433 58.1055H70.0513V60.6292H72.6433V58.1055Z" fill="#D48B28"/>
<path d="M75.2458 58.1055H72.6538V60.6292H75.2458V58.1055Z" fill="#D48B27"/>
<path d="M77.8361 58.1055H75.2441V60.6292H77.8361V58.1055Z" fill="#D48B26"/>
<path d="M80.4289 58.1055H77.8369V60.6292H80.4289V58.1055Z" fill="#D48B27"/>
<path d="M83.0295 58.1055H80.4375V60.6292H83.0295V58.1055Z" fill="#F3DB1B"/>
<path d="M85.6223 58.1055H83.0303V60.6292H85.6223V58.1055Z" fill="#FEB826"/>
<path d="M88.2155 58.1055H85.6235V60.6292H88.2155V58.1055Z" fill="#FEB826"/>
<path d="M90.8059 58.1055H88.2139V60.6292H90.8059V58.1055Z" fill="#FEB826"/>
<path d="M93.4089 58.1055H90.8169V60.6292H93.4089V58.1055Z" fill="#843614"/>
<path d="M5.18475 60.6387H2.59277V63.1624H5.18475V60.6387Z" fill="#4C1E0E"/>
<path d="M7.78536 60.6387H5.19336V63.1624H7.78536V60.6387Z" fill="#FEB826"/>
<path d="M10.3781 60.6387H7.78613V63.1624H10.3781V60.6387Z" fill="#FEB826"/>
<path d="M12.9684 60.6387H10.3765V63.1624H12.9684V60.6387Z" fill="#FEB826"/>
<path d="M15.5617 60.6387H12.9697V63.1624H15.5617V60.6387Z" fill="#FEB826"/>
<path d="M18.1642 60.6387H15.5723V63.1624H18.1642V60.6387Z" fill="#D28825"/>
<path d="M20.755 60.6387H18.1631V63.1624H20.755V60.6387Z" fill="#D38826"/>
<path d="M23.3479 60.6387H20.7559V63.1624H23.3479V60.6387Z" fill="#D28825"/>
<path d="M25.9382 60.6387H23.3462V63.1624H25.9382V60.6387Z" fill="#D28826"/>
<path d="M28.5412 60.6387H25.9492V63.1624H28.5412V60.6387Z" fill="#D28825"/>
<path d="M31.1315 60.6387H28.5396V63.1624H31.1315V60.6387Z" fill="#D28826"/>
<path d="M33.7243 60.6387H31.1323V63.1624H33.7243V60.6387Z" fill="#D28825"/>
<path d="M36.3274 60.6387H33.7354V63.1624H36.3274V60.6387Z" fill="#D28826"/>
<path d="M38.9176 60.6387H36.3257V63.1624H38.9176V60.6387Z" fill="#D28826"/>
<path d="M41.5105 60.6387H38.9185V63.1624H41.5105V60.6387Z" fill="#D38826"/>
<path d="M44.1032 60.6387H41.5112V63.1624H44.1032V60.6387Z" fill="#D28826"/>
<path d="M46.7038 60.6387H44.1118V63.1624H46.7038V60.6387Z" fill="#D28825"/>
<path d="M49.2966 60.6387H46.7046V63.1624H49.2966V60.6387Z" fill="#D28825"/>
<path d="M51.8874 60.6387H49.2954V63.1624H51.8874V60.6387Z" fill="#D28826"/>
<path d="M54.4896 60.6387H51.8979V63.1624H54.4896V60.6387Z" fill="#D28825"/>
<path d="M57.0808 60.6387H54.4888V63.1624H57.0808V60.6387Z" fill="#D28826"/>
<path d="M59.6735 60.6387H57.0815V63.1624H59.6735V60.6387Z" fill="#D28825"/>
<path d="M62.2663 60.6387H59.6743V63.1624H62.2663V60.6387Z" fill="#D38826"/>
<path d="M64.8664 60.6387H62.2744V63.1624H64.8664V60.6387Z" fill="#D28825"/>
<path d="M67.4597 60.6387H64.8677V63.1624H67.4597V60.6387Z" fill="#D28826"/>
<path d="M70.05 60.6387H67.458V63.1624H70.05V60.6387Z" fill="#D28825"/>
<path d="M72.6433 60.6387H70.0513V63.1624H72.6433V60.6387Z" fill="#D28826"/>
<path d="M75.2458 60.6387H72.6538V63.1624H75.2458V60.6387Z" fill="#D28825"/>
<path d="M77.8361 60.6387H75.2441V63.1624H77.8361V60.6387Z" fill="#D28826"/>
<path d="M80.4289 60.6387H77.8369V63.1624H80.4289V60.6387Z" fill="#D28826"/>
<path d="M83.0295 60.6387H80.4375V63.1624H83.0295V60.6387Z" fill="#FEB826"/>
<path d="M85.6223 60.6387H83.0303V63.1624H85.6223V60.6387Z" fill="#FEB826"/>
<path d="M88.2155 60.6387H85.6235V63.1624H88.2155V60.6387Z" fill="#FEB826"/>
<path d="M90.8059 60.6387H88.2139V63.1624H90.8059V60.6387Z" fill="#FEB826"/>
<path d="M93.4089 60.6387H90.8169V63.1624H93.4089V60.6387Z" fill="#4C1E0E"/>
<path d="M5.18475 63.1621H2.59277V65.6859H5.18475V63.1621Z" fill="#4C1E0E"/>
<path d="M7.78536 63.1621H5.19336V65.6859H7.78536V63.1621Z" fill="#AA5900"/>
<path d="M10.3781 63.1621H7.78613V65.6859H10.3781V63.1621Z" fill="#FEB826"/>
<path d="M12.9684 63.1621H10.3765V65.6859H12.9684V63.1621Z" fill="#FEB826"/>
<path d="M15.5617 63.1621H12.9697V65.6859H15.5617V63.1621Z" fill="#FEB826"/>
<path d="M18.1642 63.1621H15.5723V65.6859H18.1642V63.1621Z" fill="#F5DB1B"/>
<path d="M20.755 63.1621H18.1631V65.6859H20.755V63.1621Z" fill="#D18524"/>
<path d="M23.3479 63.1621H20.7559V65.6859H23.3479V63.1621Z" fill="#D18525"/>
<path d="M25.9382 63.1621H23.3462V65.6859H25.9382V63.1621Z" fill="#D18525"/>
<path d="M28.5412 63.1621H25.9492V65.6859H28.5412V63.1621Z" fill="#D18524"/>
<path d="M31.1315 63.1621H28.5396V65.6859H31.1315V63.1621Z" fill="#D18525"/>
<path d="M33.7243 63.1621H31.1323V65.6859H33.7243V63.1621Z" fill="#D18625"/>
<path d="M36.3274 63.1621H33.7354V65.6859H36.3274V63.1621Z" fill="#D18524"/>
<path d="M38.9176 63.1621H36.3257V65.6859H38.9176V63.1621Z" fill="#D18524"/>
<path d="M41.5105 63.1621H38.9185V65.6859H41.5105V63.1621Z" fill="#D18625"/>
<path d="M44.1032 63.1621H41.5112V65.6859H44.1032V63.1621Z" fill="#D18524"/>
<path d="M46.7038 63.1621H44.1118V65.6859H46.7038V63.1621Z" fill="#D18524"/>
<path d="M49.2966 63.1621H46.7046V65.6859H49.2966V63.1621Z" fill="#D18524"/>
<path d="M51.8874 63.1621H49.2954V65.6859H51.8874V63.1621Z" fill="#D18525"/>
<path d="M54.4896 63.1621H51.8979V65.6859H54.4896V63.1621Z" fill="#D18524"/>
<path d="M57.0808 63.1621H54.4888V65.6859H57.0808V63.1621Z" fill="#D18524"/>
<path d="M59.6735 63.1621H57.0815V65.6859H59.6735V63.1621Z" fill="#D18524"/>
<path d="M62.2663 63.1621H59.6743V65.6859H62.2663V63.1621Z" fill="#D18524"/>
<path d="M64.8664 63.1621H62.2744V65.6859H64.8664V63.1621Z" fill="#D18525"/>
<path d="M67.4597 63.1621H64.8677V65.6859H67.4597V63.1621Z" fill="#D18525"/>
<path d="M70.05 63.1621H67.458V65.6859H70.05V63.1621Z" fill="#D18524"/>
<path d="M72.6433 63.1621H70.0513V65.6859H72.6433V63.1621Z" fill="#D18525"/>
<path d="M75.2458 63.1621H72.6538V65.6859H75.2458V63.1621Z" fill="#D18625"/>
<path d="M77.8361 63.1621H75.2441V65.6859H77.8361V63.1621Z" fill="#D18524"/>
<path d="M80.4289 63.1621H77.8369V65.6859H80.4289V63.1621Z" fill="#F3DA1B"/>
<path d="M83.0295 63.1621H80.4375V65.6859H83.0295V63.1621Z" fill="#FEB826"/>
<path d="M85.6223 63.1621H83.0303V65.6859H85.6223V63.1621Z" fill="#FEB826"/>
<path d="M88.2155 63.1621H85.6235V65.6859H88.2155V63.1621Z" fill="#FEB826"/>
<path d="M90.8059 63.1621H88.2139V65.6859H90.8059V63.1621Z" fill="#AA5900"/>
<path d="M93.4089 63.1621H90.8169V65.6859H93.4089V63.1621Z" fill="#4C1E0E"/>
<path d="M5.18475 65.6855H2.59277V68.2093H5.18475V65.6855Z" fill="#4C1E0E"/>
<path d="M7.78536 65.6855H5.19336V68.2093H7.78536V65.6855Z" fill="#843614"/>
<path d="M10.3781 65.6855H7.78613V68.2093H10.3781V65.6855Z" fill="#FEB826"/>
<path d="M12.9684 65.6855H10.3765V68.2093H12.9684V65.6855Z" fill="#FEB826"/>
<path d="M15.5617 65.6855H12.9697V68.2093H15.5617V65.6855Z" fill="#FEB826"/>
<path d="M18.1642 65.6855H15.5723V68.2093H18.1642V65.6855Z" fill="#FEB826"/>
<path d="M20.755 65.6855H18.1631V68.2093H20.755V65.6855Z" fill="#F2D91A"/>
<path d="M23.3479 65.6855H20.7559V68.2093H23.3479V65.6855Z" fill="#CF8223"/>
<path d="M25.9382 65.6855H23.3462V68.2093H25.9382V65.6855Z" fill="#CF8323"/>
<path d="M28.5412 65.6855H25.9492V68.2093H28.5412V65.6855Z" fill="#CF8223"/>
<path d="M31.1315 65.6855H28.5396V68.2093H31.1315V65.6855Z" fill="#CF8223"/>
<path d="M33.7243 65.6855H31.1323V68.2093H33.7243V65.6855Z" fill="#CF8223"/>
<path d="M36.3274 65.6855H33.7354V68.2093H36.3274V65.6855Z" fill="#CF8223"/>
<path d="M38.9176 65.6855H36.3257V68.2093H38.9176V65.6855Z" fill="#CF8223"/>
<path d="M41.5105 65.6855H38.9185V68.2093H41.5105V65.6855Z" fill="#CF8223"/>
<path d="M44.1032 65.6855H41.5112V68.2093H44.1032V65.6855Z" fill="#CF8223"/>
<path d="M46.7038 65.6855H44.1118V68.2093H46.7038V65.6855Z" fill="#CF8323"/>
<path d="M49.2966 65.6855H46.7046V68.2093H49.2966V65.6855Z" fill="#CF8223"/>
<path d="M51.8874 65.6855H49.2954V68.2093H51.8874V65.6855Z" fill="#CF8223"/>
<path d="M54.4896 65.6855H51.8979V68.2093H54.4896V65.6855Z" fill="#CF8323"/>
<path d="M57.0808 65.6855H54.4888V68.2093H57.0808V65.6855Z" fill="#D08323"/>
<path d="M59.6735 65.6855H57.0815V68.2093H59.6735V65.6855Z" fill="#CF8223"/>
<path d="M62.2663 65.6855H59.6743V68.2093H62.2663V65.6855Z" fill="#CF8222"/>
<path d="M64.8664 65.6855H62.2744V68.2093H64.8664V65.6855Z" fill="#CF8223"/>
<path d="M67.4597 65.6855H64.8677V68.2093H67.4597V65.6855Z" fill="#CF8323"/>
<path d="M70.05 65.6855H67.458V68.2093H70.05V65.6855Z" fill="#CF8223"/>
<path d="M72.6433 65.6855H70.0513V68.2093H72.6433V65.6855Z" fill="#CF8223"/>
<path d="M75.2458 65.6855H72.6538V68.2093H75.2458V65.6855Z" fill="#CF8223"/>
<path d="M77.8361 65.6855H75.2441V68.2093H77.8361V65.6855Z" fill="#F2D91A"/>
<path d="M80.4289 65.6855H77.8369V68.2093H80.4289V65.6855Z" fill="#FEB826"/>
<path d="M83.0295 65.6855H80.4375V68.2093H83.0295V65.6855Z" fill="#FEB826"/>
<path d="M85.6223 65.6855H83.0303V68.2093H85.6223V65.6855Z" fill="#FEB826"/>
<path d="M88.2155 65.6855H85.6235V68.2093H88.2155V65.6855Z" fill="#FEB826"/>
<path d="M90.8059 65.6855H88.2139V68.2093H90.8059V65.6855Z" fill="#843614"/>
<path d="M93.4089 65.6855H90.8169V68.2093H93.4089V65.6855Z" fill="#4C1E0E"/>
<path d="M7.78536 68.209H5.19336V70.7327H7.78536V68.209Z" fill="#4C1E0E"/>
<path d="M10.3781 68.209H7.78613V70.7327H10.3781V68.209Z" fill="#AA5900"/>
<path d="M12.9684 68.209H10.3765V70.7327H12.9684V68.209Z" fill="#FEB826"/>
<path d="M15.5617 68.209H12.9697V70.7327H15.5617V68.209Z" fill="#FEB826"/>
<path d="M18.1642 68.209H15.5723V70.7327H18.1642V68.209Z" fill="#FEB826"/>
<path d="M20.755 68.209H18.1631V70.7327H20.755V68.209Z" fill="#FEB826"/>
<path d="M23.3479 68.209H20.7559V70.7327H23.3479V68.209Z" fill="#F2D81A"/>
<path d="M25.9382 68.209H23.3462V70.7327H25.9382V68.209Z" fill="#CE8022"/>
<path d="M28.5412 68.209H25.9492V70.7327H28.5412V68.209Z" fill="#CE8022"/>
<path d="M31.1315 68.209H28.5396V70.7327H31.1315V68.209Z" fill="#CE8022"/>
<path d="M33.7243 68.209H31.1323V70.7327H33.7243V68.209Z" fill="#CE8022"/>
<path d="M36.3274 68.209H33.7354V70.7327H36.3274V68.209Z" fill="#CE8021"/>
<path d="M38.9176 68.209H36.3257V70.7327H38.9176V68.209Z" fill="#CE8022"/>
<path d="M41.5105 68.209H38.9185V70.7327H41.5105V68.209Z" fill="#CE8022"/>
<path d="M44.1032 68.209H41.5112V70.7327H44.1032V68.209Z" fill="#CE8022"/>
<path d="M46.7038 68.209H44.1118V70.7327H46.7038V68.209Z" fill="#CE8022"/>
<path d="M49.2966 68.209H46.7046V70.7327H49.2966V68.209Z" fill="#CE8022"/>
<path d="M51.8874 68.209H49.2954V70.7327H51.8874V68.209Z" fill="#CE8021"/>
<path d="M54.4896 68.209H51.8979V70.7327H54.4896V68.209Z" fill="#CE8022"/>
<path d="M57.0808 68.209H54.4888V70.7327H57.0808V68.209Z" fill="#CE8022"/>
<path d="M59.6735 68.209H57.0815V70.7327H59.6735V68.209Z" fill="#CE8022"/>
<path d="M62.2663 68.209H59.6743V70.7327H62.2663V68.209Z" fill="#CE8022"/>
<path d="M64.8664 68.209H62.2744V70.7327H64.8664V68.209Z" fill="#CE8022"/>
<path d="M67.4597 68.209H64.8677V70.7327H67.4597V68.209Z" fill="#CE8022"/>
<path d="M70.05 68.209H67.458V70.7327H70.05V68.209Z" fill="#CE8022"/>
<path d="M72.6433 68.209H70.0513V70.7327H72.6433V68.209Z" fill="#CE8022"/>
<path d="M75.2458 68.209H72.6538V70.7327H75.2458V68.209Z" fill="#F2D81A"/>
<path d="M77.8361 68.209H75.2441V70.7327H77.8361V68.209Z" fill="#FEB826"/>
<path d="M80.4289 68.209H77.8369V70.7327H80.4289V68.209Z" fill="#FEB826"/>
<path d="M83.0295 68.209H80.4375V70.7327H83.0295V68.209Z" fill="#FEB826"/>
<path d="M85.6223 68.209H83.0303V70.7327H85.6223V68.209Z" fill="#FEB826"/>
<path d="M88.2155 68.209H85.6235V70.7327H88.2155V68.209Z" fill="#AA5900"/>
<path d="M90.8059 68.209H88.2139V70.7327H90.8059V68.209Z" fill="#4C1E0E"/>
<path d="M7.78536 70.7422H5.19336V73.2659H7.78536V70.7422Z" fill="#4C1E0E"/>
<path d="M10.3781 70.7422H7.78613V73.2659H10.3781V70.7422Z" fill="#843614"/>
<path d="M12.9684 70.7422H10.3765V73.2659H12.9684V70.7422Z" fill="#AA5900"/>
<path d="M15.5617 70.7422H12.9697V73.2659H15.5617V70.7422Z" fill="#FEB826"/>
<path d="M18.1642 70.7422H15.5723V73.2659H18.1642V70.7422Z" fill="#FEB826"/>
<path d="M20.755 70.7422H18.1631V73.2659H20.755V70.7422Z" fill="#FEB826"/>
<path d="M23.3479 70.7422H20.7559V73.2659H23.3479V70.7422Z" fill="#FEB826"/>
<path d="M25.9382 70.7422H23.3462V73.2659H25.9382V70.7422Z" fill="#F1D81A"/>
<path d="M28.5412 70.7422H25.9492V73.2659H28.5412V70.7422Z" fill="#CC7D21"/>
<path d="M31.1315 70.7422H28.5396V73.2659H31.1315V70.7422Z" fill="#CC7D20"/>
<path d="M33.7243 70.7422H31.1323V73.2659H33.7243V70.7422Z" fill="#CC7D20"/>
<path d="M36.3274 70.7422H33.7354V73.2659H36.3274V70.7422Z" fill="#CC7D21"/>
<path d="M38.9176 70.7422H36.3257V73.2659H38.9176V70.7422Z" fill="#CC7D20"/>
<path d="M41.5105 70.7422H38.9185V73.2659H41.5105V70.7422Z" fill="#CC7D20"/>
<path d="M44.1032 70.7422H41.5112V73.2659H44.1032V70.7422Z" fill="#CC7D20"/>
<path d="M46.7038 70.7422H44.1118V73.2659H46.7038V70.7422Z" fill="#CC7D21"/>
<path d="M49.2966 70.7422H46.7046V73.2659H49.2966V70.7422Z" fill="#CC7D20"/>
<path d="M51.8874 70.7422H49.2954V73.2659H51.8874V70.7422Z" fill="#CC7D21"/>
<path d="M54.4896 70.7422H51.8979V73.2659H54.4896V70.7422Z" fill="#CC7D21"/>
<path d="M57.0808 70.7422H54.4888V73.2659H57.0808V70.7422Z" fill="#CC7D20"/>
<path d="M59.6735 70.7422H57.0815V73.2659H59.6735V70.7422Z" fill="#CC7D21"/>
<path d="M62.2663 70.7422H59.6743V73.2659H62.2663V70.7422Z" fill="#CC7D21"/>
<path d="M64.8664 70.7422H62.2744V73.2659H64.8664V70.7422Z" fill="#CC7D20"/>
<path d="M67.4597 70.7422H64.8677V73.2659H67.4597V70.7422Z" fill="#CC7D21"/>
<path d="M70.05 70.7422H67.458V73.2659H70.05V70.7422Z" fill="#CC7D21"/>
<path d="M72.6433 70.7422H70.0513V73.2659H72.6433V70.7422Z" fill="#F1D819"/>
<path d="M75.2458 70.7422H72.6538V73.2659H75.2458V70.7422Z" fill="#FEB826"/>
<path d="M77.8361 70.7422H75.2441V73.2659H77.8361V70.7422Z" fill="#FEB826"/>
<path d="M80.4289 70.7422H77.8369V73.2659H80.4289V70.7422Z" fill="#FEB826"/>
<path d="M83.0295 70.7422H80.4375V73.2659H83.0295V70.7422Z" fill="#FEB826"/>
<path d="M85.6223 70.7422H83.0303V73.2659H85.6223V70.7422Z" fill="#AA5900"/>
<path d="M88.2155 70.7422H85.6235V73.2659H88.2155V70.7422Z" fill="#843614"/>
<path d="M90.8059 70.7422H88.2139V73.2659H90.8059V70.7422Z" fill="#4C1E0E"/>
<path d="M10.3781 73.2676H7.78613V75.7917H10.3781V73.2676Z" fill="#4C1E0E"/>
<path d="M12.9684 73.2676H10.3765V75.7917H12.9684V73.2676Z" fill="#AA5900"/>
<path d="M15.5617 73.2676H12.9697V75.7917H15.5617V73.2676Z" fill="#B9731C"/>
<path d="M18.1642 73.2676H15.5723V75.7917H18.1642V73.2676Z" fill="#FEB826"/>
<path d="M20.755 73.2676H18.1631V75.7917H20.755V73.2676Z" fill="#FEB826"/>
<path d="M23.3479 73.2676H20.7559V75.7917H23.3479V73.2676Z" fill="#FEB826"/>
<path d="M25.9382 73.2676H23.3462V75.7917H25.9382V73.2676Z" fill="#FEB826"/>
<path d="M28.5412 73.2676H25.9492V75.7917H28.5412V73.2676Z" fill="#F1D719"/>
<path d="M31.1315 73.2676H28.5396V75.7917H31.1315V73.2676Z" fill="#CB7B20"/>
<path d="M33.7243 73.2676H31.1323V75.7917H33.7243V73.2676Z" fill="#CA7A1F"/>
<path d="M36.3274 73.2676H33.7354V75.7917H36.3274V73.2676Z" fill="#CA7A1F"/>
<path d="M38.9176 73.2676H36.3257V75.7917H38.9176V73.2676Z" fill="#CA7A1F"/>
<path d="M41.5105 73.2676H38.9185V75.7917H41.5105V73.2676Z" fill="#CA7A1F"/>
<path d="M44.1032 73.2676H41.5112V75.7917H44.1032V73.2676Z" fill="#CA7A1F"/>
<path d="M46.7038 73.2676H44.1118V75.7917H46.7038V73.2676Z" fill="#CA7A1F"/>
<path d="M49.2966 73.2676H46.7046V75.7917H49.2966V73.2676Z" fill="#CA7A1F"/>
<path d="M51.8874 73.2676H49.2954V75.7917H51.8874V73.2676Z" fill="#CB7B20"/>
<path d="M54.4896 73.2676H51.8979V75.7917H54.4896V73.2676Z" fill="#CA7A1F"/>
<path d="M57.0808 73.2676H54.4888V75.7917H57.0808V73.2676Z" fill="#CB7A1F"/>
<path d="M59.6735 73.2676H57.0815V75.7917H59.6735V73.2676Z" fill="#CA7B20"/>
<path d="M62.2663 73.2676H59.6743V75.7917H62.2663V73.2676Z" fill="#CA7A1F"/>
<path d="M64.8664 73.2676H62.2744V75.7917H64.8664V73.2676Z" fill="#CB7B1F"/>
<path d="M67.4597 73.2676H64.8677V75.7917H67.4597V73.2676Z" fill="#CB7B20"/>
<path d="M70.05 73.2676H67.458V75.7917H70.05V73.2676Z" fill="#F1D719"/>
<path d="M72.6433 73.2676H70.0513V75.7917H72.6433V73.2676Z" fill="#FEB826"/>
<path d="M75.2458 73.2676H72.6538V75.7917H75.2458V73.2676Z" fill="#FEB826"/>
<path d="M77.8361 73.2676H75.2441V75.7917H77.8361V73.2676Z" fill="#FEB826"/>
<path d="M80.4289 73.2676H77.8369V75.7917H80.4289V73.2676Z" fill="#FEB826"/>
<path d="M83.0295 73.2676H80.4375V75.7917H83.0295V73.2676Z" fill="#FEB826"/>
<path d="M85.6223 73.2676H83.0303V75.7917H85.6223V73.2676Z" fill="#AA5900"/>
<path d="M88.2155 73.2676H85.6235V75.7917H88.2155V73.2676Z" fill="#4C1E0E"/>
<path d="M12.9684 75.791H10.3765V78.3151H12.9684V75.791Z" fill="#4C1E0E"/>
<path d="M15.5617 75.791H12.9697V78.3151H15.5617V75.791Z" fill="#AA5900"/>
<path d="M18.1642 75.791H15.5723V78.3151H18.1642V75.791Z" fill="#FEB826"/>
<path d="M20.755 75.791H18.1631V78.3151H20.755V75.791Z" fill="#FEB826"/>
<path d="M23.3479 75.791H20.7559V78.3151H23.3479V75.791Z" fill="#FEB826"/>
<path d="M25.9382 75.791H23.3462V78.3151H25.9382V75.791Z" fill="#FEB826"/>
<path d="M28.5412 75.791H25.9492V78.3151H28.5412V75.791Z" fill="#FEB826"/>
<path d="M31.1315 75.791H28.5396V78.3151H31.1315V75.791Z" fill="#FEB826"/>
<path d="M33.7243 75.791H31.1323V78.3151H33.7243V75.791Z" fill="#F0D619"/>
<path d="M36.3274 75.791H33.7354V78.3151H36.3274V75.791Z" fill="#E1B21B"/>
<path d="M38.9176 75.791H36.3257V78.3151H38.9176V75.791Z" fill="#C9771E"/>
<path d="M41.5105 75.791H38.9185V78.3151H41.5105V75.791Z" fill="#C9771E"/>
<path d="M44.1032 75.791H41.5112V78.3151H44.1032V75.791Z" fill="#C9781E"/>
<path d="M46.7038 75.791H44.1118V78.3151H46.7038V75.791Z" fill="#C9771E"/>
<path d="M49.2966 75.791H46.7046V78.3151H49.2966V75.791Z" fill="#C9771E"/>
<path d="M51.8874 75.791H49.2954V78.3151H51.8874V75.791Z" fill="#C9781E"/>
<path d="M54.4896 75.791H51.8979V78.3151H54.4896V75.791Z" fill="#C9781E"/>
<path d="M57.0808 75.791H54.4888V78.3151H57.0808V75.791Z" fill="#C9771E"/>
<path d="M59.6735 75.791H57.0815V78.3151H59.6735V75.791Z" fill="#C9781E"/>
<path d="M62.2663 75.791H59.6743V78.3151H62.2663V75.791Z" fill="#CB7D1E"/>
<path d="M64.8664 75.791H62.2744V78.3151H64.8664V75.791Z" fill="#F0D619"/>
<path d="M67.4597 75.791H64.8677V78.3151H67.4597V75.791Z" fill="#FEB826"/>
<path d="M70.05 75.791H67.458V78.3151H70.05V75.791Z" fill="#FEB826"/>
<path d="M72.6433 75.791H70.0513V78.3151H72.6433V75.791Z" fill="#FEB826"/>
<path d="M75.2458 75.791H72.6538V78.3151H75.2458V75.791Z" fill="#FEB826"/>
<path d="M77.8361 75.791H75.2441V78.3151H77.8361V75.791Z" fill="#FEB826"/>
<path d="M80.4289 75.791H77.8369V78.3151H80.4289V75.791Z" fill="#FEB826"/>
<path d="M83.0295 75.791H80.4375V78.3151H83.0295V75.791Z" fill="#AA5900"/>
<path d="M85.6223 75.791H83.0303V78.3151H85.6223V75.791Z" fill="#A55503"/>
<path d="M88.2155 75.791H85.6235V78.3151H88.2155V75.791Z" fill="#4C1E0E"/>
<path d="M12.9684 78.3242H10.3765V80.848H12.9684V78.3242Z" fill="#4C1E0E"/>
<path d="M15.5617 78.3242H12.9697V80.848H15.5617V78.3242Z" fill="#843614"/>
<path d="M18.1642 78.3242H15.5723V80.848H18.1642V78.3242Z" fill="#AA5900"/>
<path d="M20.755 78.3242H18.1631V80.848H20.755V78.3242Z" fill="#AA5900"/>
<path d="M23.3479 78.3242H20.7559V80.848H23.3479V78.3242Z" fill="#FEB826"/>
<path d="M25.9382 78.3242H23.3462V80.848H25.9382V78.3242Z" fill="#FEB826"/>
<path d="M28.5412 78.3242H25.9492V80.848H28.5412V78.3242Z" fill="#FEB826"/>
<path d="M31.1315 78.3242H28.5396V80.848H31.1315V78.3242Z" fill="#FEB826"/>
<path d="M33.7243 78.3242H31.1323V80.848H33.7243V78.3242Z" fill="#FEB826"/>
<path d="M36.3274 78.3242H33.7354V80.848H36.3274V78.3242Z" fill="#FEB826"/>
<path d="M38.9176 78.3242H36.3257V80.848H38.9176V78.3242Z" fill="#F0D519"/>
<path d="M41.5105 78.3242H38.9185V80.848H41.5105V78.3242Z" fill="#F0D519"/>
<path d="M44.1032 78.3242H41.5112V80.848H44.1032V78.3242Z" fill="#F0D519"/>
<path d="M46.7038 78.3242H44.1118V80.848H46.7038V78.3242Z" fill="#F0D519"/>
<path d="M49.2966 78.3242H46.7046V80.848H49.2966V78.3242Z" fill="#F0D518"/>
<path d="M51.8874 78.3242H49.2954V80.848H51.8874V78.3242Z" fill="#F0D519"/>
<path d="M54.4896 78.3242H51.8979V80.848H54.4896V78.3242Z" fill="#F0D519"/>
<path d="M57.0808 78.3242H54.4888V80.848H57.0808V78.3242Z" fill="#F0D518"/>
<path d="M59.6735 78.3242H57.0815V80.848H59.6735V78.3242Z" fill="#F0D519"/>
<path d="M62.2663 78.3242H59.6743V80.848H62.2663V78.3242Z" fill="#FEB826"/>
<path d="M64.8664 78.3242H62.2744V80.848H64.8664V78.3242Z" fill="#FEB826"/>
<path d="M67.4597 78.3242H64.8677V80.848H67.4597V78.3242Z" fill="#FEB826"/>
<path d="M70.05 78.3242H67.458V80.848H70.05V78.3242Z" fill="#FEB826"/>
<path d="M72.6433 78.3242H70.0513V80.848H72.6433V78.3242Z" fill="#FEB826"/>
<path d="M75.2458 78.3242H72.6538V80.848H75.2458V78.3242Z" fill="#FEB826"/>
<path d="M77.8361 78.3242H75.2441V80.848H77.8361V78.3242Z" fill="#B46A13"/>
<path d="M80.4289 78.3242H77.8369V80.848H80.4289V78.3242Z" fill="#AA5900"/>
<path d="M83.0295 78.3242H80.4375V80.848H83.0295V78.3242Z" fill="#843614"/>
<path d="M85.6223 78.3242H83.0303V80.848H85.6223V78.3242Z" fill="#4C1E0E"/>
<path d="M15.5617 80.8477H12.9697V83.3718H15.5617V80.8477Z" fill="#4C1E0E"/>
<path d="M18.1642 80.8477H15.5723V83.3718H18.1642V80.8477Z" fill="#843614"/>
<path d="M20.755 80.8477H18.1631V83.3718H20.755V80.8477Z" fill="#AA5900"/>
<path d="M23.3479 80.8477H20.7559V83.3718H23.3479V80.8477Z" fill="#AA5900"/>
<path d="M25.9382 80.8477H23.3462V83.3718H25.9382V80.8477Z" fill="#FEB826"/>
<path d="M28.5412 80.8477H25.9492V83.3718H28.5412V80.8477Z" fill="#FEB826"/>
<path d="M31.1315 80.8477H28.5396V83.3718H31.1315V80.8477Z" fill="#FEB826"/>
<path d="M33.7243 80.8477H31.1323V83.3718H33.7243V80.8477Z" fill="#FEB826"/>
<path d="M36.3274 80.8477H33.7354V83.3718H36.3274V80.8477Z" fill="#FEB826"/>
<path d="M38.9176 80.8477H36.3257V83.3718H38.9176V80.8477Z" fill="#FEB826"/>
<path d="M41.5105 80.8477H38.9185V83.3718H41.5105V80.8477Z" fill="#FEB826"/>
<path d="M44.1032 80.8477H41.5112V83.3718H44.1032V80.8477Z" fill="#FEB826"/>
<path d="M46.7038 80.8477H44.1118V83.3718H46.7038V80.8477Z" fill="#FEB826"/>
<path d="M49.2966 80.8477H46.7046V83.3718H49.2966V80.8477Z" fill="#FEB826"/>
<path d="M51.8874 80.8477H49.2954V83.3718H51.8874V80.8477Z" fill="#FEB826"/>
<path d="M54.4896 80.8477H51.8979V83.3718H54.4896V80.8477Z" fill="#FEB826"/>
<path d="M57.0808 80.8477H54.4888V83.3718H57.0808V80.8477Z" fill="#FEB826"/>
<path d="M59.6735 80.8477H57.0815V83.3718H59.6735V80.8477Z" fill="#FEB826"/>
<path d="M62.2663 80.8477H59.6743V83.3718H62.2663V80.8477Z" fill="#FEB826"/>
<path d="M64.8664 80.8477H62.2744V83.3718H64.8664V80.8477Z" fill="#FEB826"/>
<path d="M67.4597 80.8477H64.8677V83.3718H67.4597V80.8477Z" fill="#FEB826"/>
<path d="M70.05 80.8477H67.458V83.3718H70.05V80.8477Z" fill="#FEB826"/>
<path d="M72.6433 80.8477H70.0513V83.3718H72.6433V80.8477Z" fill="#FEB826"/>
<path d="M75.2458 80.8477H72.6538V83.3718H75.2458V80.8477Z" fill="#AA5900"/>
<path d="M77.8361 80.8477H75.2441V83.3718H77.8361V80.8477Z" fill="#AA5900"/>
<path d="M80.4289 80.8477H77.8369V83.3718H80.4289V80.8477Z" fill="#843614"/>
<path d="M83.0295 80.8477H80.4375V83.3718H83.0295V80.8477Z" fill="#4C1E0E"/>
<path d="M18.1642 83.3711H15.5723V85.8948H18.1642V83.3711Z" fill="#4C1E0E"/>
<path d="M20.755 83.3711H18.1631V85.8948H20.755V83.3711Z" fill="#984D04"/>
<path d="M23.3479 83.3711H20.7559V85.8948H23.3479V83.3711Z" fill="#893A12"/>
<path d="M25.9382 83.3711H23.3462V85.8948H25.9382V83.3711Z" fill="#AA5900"/>
<path d="M28.5412 83.3711H25.9492V85.8948H28.5412V83.3711Z" fill="#AA5900"/>
<path d="M31.1315 83.3711H28.5396V85.8948H31.1315V83.3711Z" fill="#FEB826"/>
<path d="M33.7243 83.3711H31.1323V85.8948H33.7243V83.3711Z" fill="#FEB826"/>
<path d="M36.3274 83.3711H33.7354V85.8948H36.3274V83.3711Z" fill="#FEB826"/>
<path d="M38.9176 83.3711H36.3257V85.8948H38.9176V83.3711Z" fill="#FEB826"/>
<path d="M41.5105 83.3711H38.9185V85.8948H41.5105V83.3711Z" fill="#FEB826"/>
<path d="M44.1032 83.3711H41.5112V85.8948H44.1032V83.3711Z" fill="#FEB826"/>
<path d="M46.7038 83.3711H44.1118V85.8948H46.7038V83.3711Z" fill="#FEB826"/>
<path d="M49.2966 83.3711H46.7046V85.8948H49.2966V83.3711Z" fill="#FEB826"/>
<path d="M51.8874 83.3711H49.2954V85.8948H51.8874V83.3711Z" fill="#FEB826"/>
<path d="M54.4896 83.3711H51.8979V85.8948H54.4896V83.3711Z" fill="#FEB826"/>
<path d="M57.0808 83.3711H54.4888V85.8948H57.0808V83.3711Z" fill="#FEB826"/>
<path d="M59.6735 83.3711H57.0815V85.8948H59.6735V83.3711Z" fill="#FEB826"/>
<path d="M62.2663 83.3711H59.6743V85.8948H62.2663V83.3711Z" fill="#FEB826"/>
<path d="M64.8664 83.3711H62.2744V85.8948H64.8664V83.3711Z" fill="#FEB826"/>
<path d="M67.4597 83.3711H64.8677V85.8948H67.4597V83.3711Z" fill="#FEB826"/>
<path d="M70.05 83.3711H67.458V85.8948H70.05V83.3711Z" fill="#AA5900"/>
<path d="M72.6433 83.3711H70.0513V85.8948H72.6433V83.3711Z" fill="#AA5900"/>
<path d="M75.2458 83.3711H72.6538V85.8948H75.2458V83.3711Z" fill="#A85702"/>
<path d="M77.8361 83.3711H75.2441V85.8948H77.8361V83.3711Z" fill="#843614"/>
<path d="M80.4289 83.3711H77.8369V85.8948H80.4289V83.3711Z" fill="#4C1E0E"/>
<path d="M20.755 85.8945H18.1631V88.4183H20.755V85.8945Z" fill="#4C1E0E"/>
<path d="M23.3479 85.8945H20.7559V88.4183H23.3479V85.8945Z" fill="#4C1E0E"/>
<path d="M25.9382 85.8945H23.3462V88.4183H25.9382V85.8945Z" fill="#843614"/>
<path d="M28.5412 85.8945H25.9492V88.4183H28.5412V85.8945Z" fill="#AA5900"/>
<path d="M31.1315 85.8945H28.5396V88.4183H31.1315V85.8945Z" fill="#AA5900"/>
<path d="M33.7243 85.8945H31.1323V88.4183H33.7243V85.8945Z" fill="#AA5900"/>
<path d="M36.3274 85.8945H33.7354V88.4183H36.3274V85.8945Z" fill="#FEB826"/>
<path d="M38.9176 85.8945H36.3257V88.4183H38.9176V85.8945Z" fill="#FEB826"/>
<path d="M41.5105 85.8945H38.9185V88.4183H41.5105V85.8945Z" fill="#FEB826"/>
<path d="M44.1032 85.8945H41.5112V88.4183H44.1032V85.8945Z" fill="#FEB826"/>
<path d="M46.7038 85.8945H44.1118V88.4183H46.7038V85.8945Z" fill="#FEB826"/>
<path d="M49.2966 85.8945H46.7046V88.4183H49.2966V85.8945Z" fill="#FEB826"/>
<path d="M51.8874 85.8945H49.2954V88.4183H51.8874V85.8945Z" fill="#FEB826"/>
<path d="M54.4896 85.8945H51.8979V88.4183H54.4896V85.8945Z" fill="#FEB826"/>
<path d="M57.0808 85.8945H54.4888V88.4183H57.0808V85.8945Z" fill="#FEB826"/>
<path d="M59.6735 85.8945H57.0815V88.4183H59.6735V85.8945Z" fill="#FEB826"/>
<path d="M62.2663 85.8945H59.6743V88.4183H62.2663V85.8945Z" fill="#FEB826"/>
<path d="M64.8664 85.8945H62.2744V88.4183H64.8664V85.8945Z" fill="#AA5900"/>
<path d="M67.4597 85.8945H64.8677V88.4183H67.4597V85.8945Z" fill="#AA5900"/>
<path d="M70.05 85.8945H67.458V88.4183H70.05V85.8945Z" fill="#AA5900"/>
<path d="M72.6433 85.8945H70.0513V88.4183H72.6433V85.8945Z" fill="#843614"/>
<path d="M75.2458 85.8945H72.6538V88.4183H75.2458V85.8945Z" fill="#4C1E0E"/>
<path d="M77.8361 85.8945H75.2441V88.4183H77.8361V85.8945Z" fill="#4C1E0E"/>
<path d="M25.9382 88.4277H23.3462V90.9515H25.9382V88.4277Z" fill="#4C1E0E"/>
<path d="M28.5412 88.4277H25.9492V90.9515H28.5412V88.4277Z" fill="#4C1E0E"/>
<path d="M31.1315 88.4277H28.5396V90.9515H31.1315V88.4277Z" fill="#843614"/>
<path d="M33.7243 88.4277H31.1323V90.9515H33.7243V88.4277Z" fill="#AA5900"/>
<path d="M36.3274 88.4277H33.7354V90.9515H36.3274V88.4277Z" fill="#AA5900"/>
<path d="M38.9176 88.4277H36.3257V90.9515H38.9176V88.4277Z" fill="#AA5900"/>
<path d="M41.5105 88.4277H38.9185V90.9515H41.5105V88.4277Z" fill="#AA5900"/>
<path d="M44.1032 88.4277H41.5112V90.9515H44.1032V88.4277Z" fill="#AA5900"/>
<path d="M46.7038 88.4277H44.1118V90.9515H46.7038V88.4277Z" fill="#AA5900"/>
<path d="M49.2966 88.4277H46.7046V90.9515H49.2966V88.4277Z" fill="#AA5900"/>
<path d="M51.8874 88.4277H49.2954V90.9515H51.8874V88.4277Z" fill="#AA5900"/>
<path d="M54.4896 88.4277H51.8979V90.9515H54.4896V88.4277Z" fill="#AA5900"/>
<path d="M57.0808 88.4277H54.4888V90.9515H57.0808V88.4277Z" fill="#AA5900"/>
<path d="M59.6735 88.4277H57.0815V90.9515H59.6735V88.4277Z" fill="#AA5900"/>
<path d="M62.2663 88.4277H59.6743V90.9515H62.2663V88.4277Z" fill="#AA5900"/>
<path d="M64.8664 88.4277H62.2744V90.9515H64.8664V88.4277Z" fill="#AA5900"/>
<path d="M67.4597 88.4277H64.8677V90.9515H67.4597V88.4277Z" fill="#843614"/>
<path d="M70.05 88.4277H67.458V90.9515H70.05V88.4277Z" fill="#8D420A"/>
<path d="M72.6433 88.4277H70.0513V90.9515H72.6433V88.4277Z" fill="#4C1E0E"/>
<path d="M31.1315 90.9531H28.5396V93.4769H31.1315V90.9531Z" fill="#4C1E0E"/>
<path d="M33.7243 90.9531H31.1323V93.4769H33.7243V90.9531Z" fill="#4C1E0E"/>
<path d="M36.3274 90.9531H33.7354V93.4769H36.3274V90.9531Z" fill="#843614"/>
<path d="M38.9176 90.9531H36.3257V93.4769H38.9176V90.9531Z" fill="#843614"/>
<path d="M41.5105 90.9531H38.9185V93.4769H41.5105V90.9531Z" fill="#843614"/>
<path d="M44.1032 90.9531H41.5112V93.4769H44.1032V90.9531Z" fill="#9C4C08"/>
<path d="M46.7038 90.9531H44.1118V93.4769H46.7038V90.9531Z" fill="#AA5900"/>
<path d="M49.2966 90.9531H46.7046V93.4769H49.2966V90.9531Z" fill="#AA5900"/>
<path d="M51.8874 90.9531H49.2954V93.4769H51.8874V90.9531Z" fill="#AA5900"/>
<path d="M54.4896 90.9531H51.8979V93.4769H54.4896V90.9531Z" fill="#A35304"/>
<path d="M57.0808 90.9531H54.4888V93.4769H57.0808V90.9531Z" fill="#843614"/>
<path d="M59.6735 90.9531H57.0815V93.4769H59.6735V90.9531Z" fill="#843614"/>
<path d="M62.2663 90.9531H59.6743V93.4769H62.2663V90.9531Z" fill="#843614"/>
<path d="M64.8664 90.9531H62.2744V93.4769H64.8664V90.9531Z" fill="#4C1E0E"/>
<path d="M67.4597 90.9531H64.8677V93.4769H67.4597V90.9531Z" fill="#4C1E0E"/>
<path d="M38.9176 93.4766H36.3257V96.0003H38.9176V93.4766Z" fill="#4C1E0E"/>
<path d="M41.5105 93.4766H38.9185V96.0003H41.5105V93.4766Z" fill="#4C1E0E"/>
<path d="M44.1032 93.4766H41.5112V96.0003H44.1032V93.4766Z" fill="#4C1E0E"/>
<path d="M46.7038 93.4766H44.1118V96.0003H46.7038V93.4766Z" fill="#4C1E0E"/>
<path d="M49.2966 93.4766H46.7046V96.0003H49.2966V93.4766Z" fill="#4C1E0E"/>
<path d="M51.8874 93.4766H49.2954V96.0003H51.8874V93.4766Z" fill="#4C1E0E"/>
<path d="M54.4896 93.4766H51.8979V96.0003H54.4896V93.4766Z" fill="#4C1E0E"/>
<path d="M57.0808 93.4766H54.4888V96.0003H57.0808V93.4766Z" fill="#4C1E0E"/>
<path d="M59.6735 93.4766H57.0815V96.0003H59.6735V93.4766Z" fill="#4C1E0E"/>
<path d="M62.2663 93.4766H59.6743V96.0003H62.2663V93.4766Z" fill="#4C1E0E"/>
<path d="M31.2962 40.6539H20.938V57.7652H24.294V50.8622H31.3059V48.5645H33.6367V42.9422H31.3059V40.6445L31.2962 40.6539ZM30.2807 47.5569H24.294V43.9498H30.2807V47.5569Z" fill="#FFE538" stroke="#4C1E0E" stroke-width="8.26211" stroke-miterlimit="10" stroke-linejoin="round"/>
<path d="M43.2999 54.4697H37.3131V40.6543H33.957V55.4773H36.2879V57.7655H44.3154V55.4773H46.646V40.6543H43.2999V54.4697Z" fill="#FFE538" stroke="#4C1E0E" stroke-width="8.26211" stroke-miterlimit="10" stroke-linejoin="round"/>
<path d="M61.9359 42.971H59.6049V45.2593H57.2743V47.5573H55.9686V45.2593H53.6376V42.971H51.3069V40.6543H47.9507V57.7655H51.3069V46.2669H52.6123V48.5649H54.9433V50.8625H58.2992V48.5649H60.6204V46.2669H61.9359V57.7655H65.2821V40.6543H61.9359V42.971Z" fill="#FFE538" stroke="#4C1E0E" stroke-width="8.26211" stroke-miterlimit="10" stroke-linejoin="round"/>
<path d="M76.723 42.9523V40.6543H66.3647V57.7655H69.7206V50.8625H76.7324V48.5649H79.0634V42.9429H76.7324L76.723 42.9523ZM75.7075 47.5573H69.7206V43.9505H75.7075V47.5573Z" fill="#FFE538" stroke="#4C1E0E" stroke-width="8.26211" stroke-miterlimit="10" stroke-linejoin="round"/>
<path d="M31.2962 40.6539H20.938V57.7652H24.294V50.8622H31.3059V48.5645H33.6367V42.9422H31.3059V40.6445L31.2962 40.6539ZM30.2807 47.5569H24.294V43.9498H30.2807V47.5569Z" fill="#FFE538" stroke="#4C1E0E" stroke-width="8.26211" stroke-miterlimit="10" stroke-linejoin="round"/>
<path d="M43.2999 54.4697H37.3131V40.6543H33.957V55.4773H36.2879V57.7655H44.3154V55.4773H46.646V40.6543H43.2999V54.4697Z" fill="#FFE538" stroke="#4C1E0E" stroke-width="8.26211" stroke-miterlimit="10" stroke-linejoin="round"/>
<path d="M61.9359 42.971H59.6049V45.2593H57.2743V47.5573H55.9686V45.2593H53.6376V42.971H51.3069V40.6543H47.9507V57.7655H51.3069V46.2669H52.6123V48.5649H54.9433V50.8625H58.2992V48.5649H60.6204V46.2669H61.9359V57.7655H65.2821V40.6543H61.9359V42.971Z" fill="#FFE538" stroke="#4C1E0E" stroke-width="8.26211" stroke-miterlimit="10" stroke-linejoin="round"/>
<path d="M76.723 42.9523V40.6543H66.3647V57.7655H69.7206V50.8625H76.7324V48.5649H79.0634V42.9429H76.7324L76.723 42.9523ZM75.7075 47.5573H69.7206V43.9505H75.7075V47.5573Z" fill="#FFE538" stroke="#4C1E0E" stroke-width="8.26211" stroke-miterlimit="10" stroke-linejoin="round"/>
<path d="M29.9051 39.2691H19.5469V56.3804H22.9029V49.4774H29.9148V47.1798H32.2457V41.5574H29.9148V39.2598L29.9051 39.2691ZM28.8799 46.1815H22.8932V42.5748H28.8799V46.1815Z" fill="#FFE538" stroke="#4C1E0E" stroke-width="8.26211" stroke-miterlimit="10" stroke-linejoin="round"/>
<path d="M41.8983 53.0849H35.9117V39.2695H32.5557V54.0925H34.8865V56.3902H42.9235V54.0925H45.2448V39.2695H41.8983V53.0849Z" fill="#FFE538" stroke="#4C1E0E" stroke-width="8.26211" stroke-miterlimit="10" stroke-linejoin="round"/>
<path d="M60.5346 41.5863H58.2036V43.8839H55.873V46.1819H54.5672V43.8839H52.2362V41.5863H49.9056V39.2695H46.5591V56.3902H49.9056V44.8919H51.2113V47.1895H53.542V49.4778H56.8982V47.1895H59.2288V44.8919H60.5346V56.3902H63.8811V39.2695H60.5346V41.5863Z" fill="#FFE538" stroke="#4C1E0E" stroke-width="8.26211" stroke-miterlimit="10" stroke-linejoin="round"/>
<path d="M75.3343 41.5675V39.2695H64.9761V56.3808H68.3319V49.4778H75.3437V47.1802H77.6747V41.5582H75.3437L75.3343 41.5675ZM74.3091 46.1819H68.3222V42.5752H74.3091V46.1819Z" fill="#FFE538" stroke="#4C1E0E" stroke-width="8.26211" stroke-miterlimit="10" stroke-linejoin="round"/>
<path d="M29.9051 39.2691H19.5469V56.3804H22.9029V49.4774H29.9148V47.1798H32.2457V41.5574H29.9148V39.2598L29.9051 39.2691ZM28.8799 46.1815H22.8932V42.5748H28.8799V46.1815Z" fill="#FFE538"/>
<path d="M41.8983 53.0849H35.9117V39.2695H32.5557V54.0925H34.8865V56.3902H42.9235V54.0925H45.2448V39.2695H41.8983V53.0849Z" fill="#FFE538"/>
<path d="M60.5346 41.5863H58.2036V43.8839H55.873V46.1819H54.5672V43.8839H52.2362V41.5863H49.9056V39.2695H46.5591V56.3902H49.9056V44.8919H51.2113V47.1895H53.542V49.4778H56.8982V47.1895H59.2288V44.8919H60.5346V56.3902H63.8811V39.2695H60.5346V41.5863Z" fill="#FFE538"/>
<path d="M75.3343 41.5675V39.2695H64.9761V56.3808H68.3319V49.4778H75.3437V47.1802H77.6747V41.5582H75.3437L75.3343 41.5675ZM74.3091 46.1819H68.3222V42.5752H74.3091V46.1819Z" fill="#FFE538"/>
<path d="M29.905 41.5675V39.2695H19.5371V56.3902H22.8932V49.4875H29.905V47.1895H32.2262V41.5675H29.905ZM28.8799 46.1819H22.8932V42.5752H28.8799V46.1819Z" fill="#FFE538"/>
<path d="M45.2427 39.2695V54.0925H42.9121V56.3902H34.8846V54.0925H32.5537V39.2695H35.9097V53.0849H41.8966V39.2695H45.2427Z" fill="#FFE538"/>
<path d="M63.8811 39.2695V56.3902H60.5346V44.8919H59.2191V47.1895H56.8982V49.4875H53.5517V47.1895H51.2207V44.8919H49.9056V56.3902H46.5591V39.2695H49.9056V41.5863H52.2362V43.8843H54.5672V46.1819H55.873V43.8843H58.2036V41.5863H60.5346V39.2695H63.8811Z" fill="#FFE538"/>
<path d="M75.3319 41.5675V39.2695H64.9736V56.3902H68.3295V49.4875H75.3319V47.1895H77.6625V41.5675H75.3319ZM74.3066 46.1819H68.3198V42.5752H74.3066V46.1819Z" fill="#FFE538"/>
<path d="M29.905 41.5675H32.2262V41.8593H19.5371V39.2695H29.905V41.5675Z" fill="#F89038"/>
<path d="M35.9097 39.2695H32.5537V41.8593H35.9097V39.2695Z" fill="#F89038"/>
<path d="M45.2426 39.2695H41.8965V41.8593H45.2426V39.2695Z" fill="#F89038"/>
<path d="M49.9056 41.5863H52.2362V41.8593H46.5591V39.2695H49.9056V41.5863Z" fill="#F89038"/>
<path d="M60.5351 39.2695H63.8812V41.8593H58.2041V41.5863H60.5351V39.2695Z" fill="#F89038"/>
<path d="M77.6531 41.5675V41.8593H64.9736V39.2695H75.3319V41.5675H77.6531Z" fill="#F89038"/>
<path d="M32.2262 41.8594V44.1574H28.8799V42.5752H22.8932V44.1574H19.5371V41.8594H32.2262Z" fill="#FABD32"/>
<path d="M35.9097 41.8594H32.5537V44.1574H35.9097V41.8594Z" fill="#FABD32"/>
<path d="M45.2426 41.8594H41.8965V44.1574H45.2426V41.8594Z" fill="#FABD32"/>
<path d="M52.2362 43.884H54.5672V44.1574H46.5591V41.8594H52.2362V43.884Z" fill="#FABD32"/>
<path d="M58.2036 41.8594H63.8807V44.1574H55.8726V43.884H58.2036V41.8594Z" fill="#FABD32"/>
<path d="M77.6531 41.8594V44.1574H74.3066V42.5752H68.3198V44.1574H64.9736V41.8594H77.6531Z" fill="#FABD32"/>
<path d="M22.8932 53.791H19.5371V56.3901H22.8932V53.791Z" fill="#F89038"/>
<path d="M32.5537 53.791H45.2427V54.0921H42.9121V56.3901H34.8846V54.0921H32.5537V53.791Z" fill="#F89038"/>
<path d="M49.9153 53.791H46.5591V56.3901H49.9153V53.791Z" fill="#F89038"/>
<path d="M63.8886 53.791H60.5327V56.3901H63.8886V53.791Z" fill="#F89038"/>
<path d="M68.3295 53.791H64.9736V56.3901H68.3295V53.791Z" fill="#F89038"/>
<path d="M22.8932 51.748H19.5371V53.7914H22.8932V51.748Z" fill="#FABD32"/>
<path d="M45.2427 51.748V53.7914H32.5537V51.748H35.9097V53.0853H41.8966V51.748H45.2427Z" fill="#FABD32"/>
<path d="M49.9153 51.748H46.5591V53.7914H49.9153V51.748Z" fill="#FABD32"/>
<path d="M63.8886 51.748H60.5327V53.7914H63.8886V51.748Z" fill="#FABD32"/>
<path d="M68.3295 51.748H64.9736V53.7914H68.3295V51.748Z" fill="#FABD32"/>
</g>
<defs>
<clipPath id="clip0_5306_8486">
<rect width="96" height="96" fill="white"/>
</clipPath>
</defs>
</svg>
